<svg xmlns="http://www.w3.org/2000/svg" width="29.992" height="26.628" viewBox="0 0 107 95">
  <defs>
    <style>
      .cls-1 {
        fill: #ccc;
        fill-rule: evenodd;
      }
    </style>
  </defs>
  <path id="Forme_26" data-name="Forme 26" class="cls-1" d="M874.784,3665a1.264,1.264,0,0,1,1.216,1.22v92.56a1.265,1.265,0,0,1-1.216,1.22H770.216a1.265,1.265,0,0,1-1.216-1.22v-92.56a1.265,1.265,0,0,1,1.216-1.22H874.784Zm-1.216,2.44H771.432v9.74H873.568v-9.74Zm0,12.18H852.9v42.05l20.67,14.09v-56.14Zm-23.1,0H826.148v23.82L850.466,3720v-40.38Zm-26.75,0H791.228l32.488,22.15v-22.15Zm-36.819,0H771.432v6.66l86.747,59.1h15.389v-6.69L786.9,3679.62h0Zm-15.465,9.59v56.17H792.1v-42.09Zm23.1,15.75v40.42h24.318v-23.86Zm26.75,18.23v22.19h32.564Zm52.284,24.63H771.432v9.74H873.568v-9.74Z" transform="translate(-769 -3665)"/>
</svg>
