<svg xmlns="http://www.w3.org/2000/svg" width="29.7" height="31.2" viewBox="0 0 99 104">
  <defs>
    <style>
      .cls-1 {
        fill: #ccc;
        stroke: #fff;
        stroke-linejoin: round;
        stroke-width: 1px;
        fill-rule: evenodd;
      }
    </style>
  </defs>
  <path id="Forme_21" data-name="Forme 21" class="cls-1" d="M491.256,3533.39a1.978,1.978,0,0,0,1.929,1.93h80.762a1.935,1.935,0,0,0,0-3.87H493.185A1.98,1.98,0,0,0,491.256,3533.39Zm22.891-34.4a1.98,1.98,0,0,0-1.929,1.94v4.52H501.8a14.919,14.919,0,0,0-14.789,14.87v61.82a14.913,14.913,0,0,0,14.789,14.87h63.4a14.913,14.913,0,0,0,14.789-14.87v-61.82a14.919,14.919,0,0,0-14.789-14.87H554.785v-4.52a1.929,1.929,0,1,0-3.858,0v4.52H516.076v-4.52A1.9,1.9,0,0,0,514.147,3498.99Zm36.909,10.34v4.53a1.929,1.929,0,1,0,3.858,0v-4.53h10.417a10.956,10.956,0,0,1,10.931,10.99v61.82a10.95,10.95,0,0,1-10.931,10.99H501.8a10.95,10.95,0,0,1-10.931-10.99v-61.82a10.956,10.956,0,0,1,10.931-10.99h10.417v4.53a1.929,1.929,0,1,0,3.858,0v-4.53h34.98Zm-28.55,39.44c0-.12-0.128-0.25-0.128-0.38a0.489,0.489,0,0,0-.258-0.26,1.849,1.849,0,0,0-2.7,0,0.489,0.489,0,0,1-.258.26c0,0.13-.128.26-0.128,0.38s-0.129.26-.129,0.39v0.39a1.944,1.944,0,0,0,.515,1.42,2.8,2.8,0,0,0,.643.39,1.613,1.613,0,0,0,.771.13,2.679,2.679,0,0,0,1.415-.52,1.943,1.943,0,0,0,.514-1.42v-0.39A1.592,1.592,0,0,0,522.506,3548.77Zm12.089-.9c0-.13-0.129-0.13-0.257-0.13s-0.258-.13-0.386-0.13a2.289,2.289,0,0,0-1.8.52,2.218,2.218,0,0,0,0,2.84,1.924,1.924,0,0,0,1.415.52,2.682,2.682,0,0,0,1.415-.52,1.947,1.947,0,0,0,.514-1.42,2.712,2.712,0,0,0-.514-1.42A0.684,0.684,0,0,0,534.6,3547.87Zm12.86,0c0-.13-0.129-0.13-0.257-0.13s-0.257-.13-0.386-0.13a2.286,2.286,0,0,0-1.8.52,1.944,1.944,0,0,0-.515,1.42,2.7,2.7,0,0,0,.515,1.42,2.775,2.775,0,0,0,.643.39,1.613,1.613,0,0,0,.771.13,2.679,2.679,0,0,0,1.415-.52,1.943,1.943,0,0,0,.514-1.42,2.712,2.712,0,0,0-.514-1.42A0.681,0.681,0,0,0,547.455,3547.87Zm13.632,0.9c0-.12-0.129-0.25-0.129-0.38a0.485,0.485,0,0,0-.257-0.26,2.011,2.011,0,0,0-1.672-.52c-0.128,0-.257.13-0.386,0.13s-0.257.13-.385,0.13a0.279,0.279,0,0,0-.258.26,0.485,0.485,0,0,1-.257.26c0,0.13-.128.26-0.128,0.38s-0.129.26-.129,0.39v0.39a1.66,1.66,0,0,0,.129.78c0.128,0.25.257,0.38,0.385,0.64a2.819,2.819,0,0,0,.643.39,2.357,2.357,0,0,0,1.544,0,2.819,2.819,0,0,0,.643-0.39,2.986,2.986,0,0,0,.385-0.64,1.66,1.66,0,0,0,.129-0.78v-0.39A1.627,1.627,0,0,0,561.087,3548.77Zm-52.213,12.03c0-.13-0.128-0.13-0.257-0.13s-0.257-.13-0.386-0.13H507.46c-0.129,0-.257.13-0.386,0.13s-0.257.13-.386,0.13a0.278,0.278,0,0,0-.257.26,1.944,1.944,0,0,0-.515,1.42,2.682,2.682,0,0,0,.515,1.42,2.8,2.8,0,0,0,.643.39,2.354,2.354,0,0,0,1.543,0,2.8,2.8,0,0,0,.643-0.39,1.929,1.929,0,0,0,.515-1.42,2.713,2.713,0,0,0-.515-1.42A0.678,0.678,0,0,0,508.874,3560.8Zm13.632,0.91c0-.13-0.128-0.26-0.128-0.39a0.489,0.489,0,0,0-.258-0.26,1.849,1.849,0,0,0-2.7,0,1.944,1.944,0,0,0-.515,1.42,1.66,1.66,0,0,0,.129.78c0.128,0.26.257,0.39,0.386,0.64a1.921,1.921,0,0,0,1.414.52,2.679,2.679,0,0,0,1.415-.52,2.552,2.552,0,0,0,.386-0.64,1.672,1.672,0,0,0,.128-0.78v-0.39A1.643,1.643,0,0,0,522.506,3561.71Zm12.86,0c0-.13-0.128-0.26-0.128-0.39a0.492,0.492,0,0,0-.257-0.26l-0.258-.26a0.468,0.468,0,0,0-.385-0.13c-0.129,0-.258-0.13-0.386-0.13a2.289,2.289,0,0,0-1.8.52,0.485,0.485,0,0,1-.257.26c0,0.13-.128.26-0.128,0.39s-0.129.25-.129,0.38v0.39a1.788,1.788,0,0,0,1.929,1.94,2.682,2.682,0,0,0,1.415-.52,1.932,1.932,0,0,0,.514-1.42v-0.39A0.559,0.559,0,0,0,535.366,3561.71Zm12.861,0c0-.13-0.129-0.26-0.129-0.39a0.492,0.492,0,0,0-.257-0.26l-0.257-.26c-0.129,0-.258-0.13-0.386-0.13s-0.257-.13-0.386-0.13a2.286,2.286,0,0,0-1.8.52,0.489,0.489,0,0,1-.258.26c0,0.13-.128.26-0.128,0.39s-0.129.25-.129,0.38v0.39a1.66,1.66,0,0,0,.129.78c0.128,0.26.257,0.39,0.386,0.64a2.775,2.775,0,0,0,.643.39,1.613,1.613,0,0,0,.771.13,2.679,2.679,0,0,0,1.415-.52,1.928,1.928,0,0,0,.514-1.42v-0.39A0.562,0.562,0,0,0,548.227,3561.71Zm12.86,0c0-.13-0.129-0.26-0.129-0.39a0.485,0.485,0,0,0-.257-0.26,1.967,1.967,0,0,0-2.7,0,0.485,0.485,0,0,1-.257.26c0,0.13-.128.26-0.128,0.39s-0.129.25-.129,0.38v0.39a1.66,1.66,0,0,0,.129.78c0.128,0.26.257,0.39,0.385,0.64a2.819,2.819,0,0,0,.643.39,2.357,2.357,0,0,0,1.544,0,2.819,2.819,0,0,0,.643-0.39,2.553,2.553,0,0,0,.385-0.64,1.66,1.66,0,0,0,.129-0.78v-0.39A1.682,1.682,0,0,0,561.087,3561.71Zm-53.627,11.76c-0.129,0-.257.13-0.386,0.13s-0.257.13-.386,0.13a0.278,0.278,0,0,0-.257.26,1.959,1.959,0,0,0-.515,1.42,2.747,2.747,0,0,0,.515,1.43,2.491,2.491,0,0,0,.643.38,2.354,2.354,0,0,0,1.543,0,2.491,2.491,0,0,0,.643-0.38,1.967,1.967,0,0,0,.515-1.43,2.745,2.745,0,0,0-.515-1.42A1.9,1.9,0,0,0,507.46,3573.47Zm11.831,0.52a1.938,1.938,0,0,0,1.415,3.36,2.665,2.665,0,0,0,1.414-.51,1.967,1.967,0,0,0,.515-1.43,2.736,2.736,0,0,0-.515-1.42A2.021,2.021,0,0,0,519.291,3573.99Zm15.3-.26c0-.13-0.129-0.13-0.257-0.13s-0.258-.13-0.386-0.13a2.289,2.289,0,0,0-1.8.52,1.938,1.938,0,0,0,1.415,3.36,2.672,2.672,0,0,0,1.415-.51,1.971,1.971,0,0,0,.514-1.43,2.744,2.744,0,0,0-.514-1.42A0.684,0.684,0,0,0,534.6,3573.73Zm12.86,0c0-.13-0.129-0.13-0.257-0.13s-0.257-.13-0.386-0.13a2.286,2.286,0,0,0-1.8.52,1.959,1.959,0,0,0-.515,1.42,1.66,1.66,0,0,0,.129.78c0.128,0.26.257,0.39,0.386,0.65a2.473,2.473,0,0,0,.643.38,1.613,1.613,0,0,0,.771.13,2.669,2.669,0,0,0,1.415-.51,2.884,2.884,0,0,0,.386-0.65,1.672,1.672,0,0,0,.128-0.78,2.744,2.744,0,0,0-.514-1.42A0.681,0.681,0,0,0,547.455,3573.73Z" transform="translate(-484 -3496)"/>
</svg>
