<svg xmlns="http://www.w3.org/2000/svg" width="30" height="25.037" viewBox="0 0 115.03 96">
  <defs>
    <style>
      .cls-1 {
        fill: #d5d5d5;
        fill-rule: evenodd;
      }
    </style>
  </defs>
  <path id="Forme_28" data-name="Forme 28" class="cls-1" d="M1121.27,3719.21a1.6,1.6,0,0,1-.83-0.23l-37.13-23.27a1.554,1.554,0,0,1,0-2.67l36.57-20.43a1.554,1.554,0,0,1,1.56,0l34.29,20.45a1.539,1.539,0,0,1,.54,2.12,1.378,1.378,0,0,1-.45.48l-33.62,23.27A1.545,1.545,0,0,1,1121.27,3719.21Zm-34.09-24.73,34.04,21.32,30.78-21.3-31.37-18.74Zm33.88,62.51a1.557,1.557,0,0,1-.79-0.21l-38.97-23.27a1.551,1.551,0,0,1,1.56-2.65l38.2,22.77,36.59-22.77a1.552,1.552,0,1,1,1.65,2.63l-37.41,23.27A1.429,1.429,0,0,1,1121.06,3756.99Zm-38.97-23.26a1.551,1.551,0,0,1-1.55-1.55v-13.96a1.555,1.555,0,1,1,3.11,0v13.96A1.553,1.553,0,0,1,1082.09,3733.73Zm76.38,0a1.56,1.56,0,0,1-1.56-1.55v-13.96a1.56,1.56,0,1,1,3.12,0v13.96A1.56,1.56,0,0,1,1158.47,3733.73Zm-37.41,21.71a1.553,1.553,0,0,1-1.56-1.55v-35.67a1.56,1.56,0,0,1,3.12,0v35.67A1.553,1.553,0,0,1,1121.06,3755.44Zm33.83-59.48a1.562,1.562,0,0,1-1.55-1.57,1.523,1.523,0,0,1,.74-1.3l18.27-11.02-31.18-17.68-19.78,10.86a1.568,1.568,0,1,1-1.56-2.72l20.55-11.35a1.554,1.554,0,0,1,1.56,0l34.29,19.4a1.554,1.554,0,0,1,0,2.67l-20.55,12.41A1.593,1.593,0,0,1,1154.89,3695.96Zm-70.77,0a1.63,1.63,0,0,1-.81-0.24l-20.54-12.41a1.538,1.538,0,0,1-.59-2.11,1.591,1.591,0,0,1,.59-0.59l36.6-19.37a1.535,1.535,0,0,1,1.55,0l20.49,11.37a1.558,1.558,0,0,1,.58,2.13,1.582,1.582,0,0,1-2.14.59l-19.8-10.96-33.31,17.73,18.19,10.99a1.546,1.546,0,0,1,.51,2.13A1.579,1.579,0,0,1,1084.12,3695.96Zm54.79,36.34a1.552,1.552,0,0,1-.93-0.31l-17.65-13.09a1.541,1.541,0,0,1-.31-2.17,1.561,1.561,0,0,1,2.18-.32v0.01l16.74,12.41,33.56-22.93-18.38-10.13a1.563,1.563,0,1,1,1.56-2.71l20.5,11.35a1.551,1.551,0,0,1,.61,2.11,1.623,1.623,0,0,1-.48.53l-36.54,24.97A1.547,1.547,0,0,1,1138.91,3732.3Zm-36.55,0a1.559,1.559,0,0,1-.84-0.25l-38.77-24.99a1.555,1.555,0,0,1,.09-2.65l20.55-11.35a1.563,1.563,0,1,1,1.56,2.71l-18.33,10.04,35.74,23.06,18.02-12.5a1.555,1.555,0,0,1,2.14.5,1.522,1.522,0,0,1-.37,2.04l-18.87,13.11A1.515,1.515,0,0,1,1102.36,3732.3Z" transform="translate(-1061.97 -3661)"/>
</svg>
