<svg xmlns="http://www.w3.org/2000/svg" width="29.998" height="29.998" viewBox="0 0 106 106">
  <defs>
    <style>
      .cls-1 {
        fill: #ccc;
        fill-rule: evenodd;
      }
    </style>
  </defs>
  <path id="Forme_20" data-name="Forme 20" class="cls-1" d="M273.557,3582.26c0-.9.129-2.32-0.774-3.22a2.893,2.893,0,0,0-3.1-.52,1.086,1.086,0,0,0-.774,1.03,5.823,5.823,0,0,1-1.16,3.35c-1.806,1.16-3.224,3.22-3.224,4.77a2.533,2.533,0,0,1-.129.9,5.869,5.869,0,0,0,.129,2.57,3.413,3.413,0,0,0,3.1,2.45h0.386c1.806-.26,3.1-2.96,3.354-3.86a9.283,9.283,0,0,1,1.16-2.71c1.161-1.03,1.29-3.35,1.161-4.25A0.76,0.76,0,0,1,273.557,3582.26Zm-2.321,3.86a8.325,8.325,0,0,0-1.29,3.09c-0.129.78-1.161,2.58-1.935,2.71h-0.257a1.636,1.636,0,0,1-1.548-1.42,10.4,10.4,0,0,1,0-2.83,4.873,4.873,0,0,1,2.321-3.35c1.29-.9,1.548-3.87,1.548-3.87,2.579-.9,1.934,2.07,1.934,2.84A5.861,5.861,0,0,1,271.236,3586.12Zm1.031-53.84a1.641,1.641,0,0,0,.516,1.29,3.135,3.135,0,0,0,2.321.77h0.645s2.966-.51,3.224-2.19c0,0,.258-3.99-1.289-4.63a0.717,0.717,0,0,1-.258-0.77s0.644-3.74-.645-4.64a4.756,4.756,0,0,0-1.935-.65,1.542,1.542,0,0,0-1.289.65,11.037,11.037,0,0,1-1.161,1.54c-1.418.78-1.16,3.35-.9,4.38A19.946,19.946,0,0,1,272.267,3532.28Zm4.127-.77c-0.258.13-.774,0.26-1.032,0.39h-0.773a36.053,36.053,0,0,0-.774-4.51,3.593,3.593,0,0,1,0-1.68,7.09,7.09,0,0,0,1.289-1.41,11.823,11.823,0,0,1-.129,2.06m16.894,23.05a53.055,53.055,0,0,0-41.525-47.27,39.357,39.357,0,0,0-4-.64,15.676,15.676,0,0,0-2.45-.26c-0.387,0-.9-0.13-1.29-0.13a33.761,33.761,0,0,0-3.482-.12h-1.16a20.468,20.468,0,0,0-2.709.12,27.288,27.288,0,0,0-3.224.39c-0.516.13-1.16,0.13-1.676,0.26-0.387.13-.9,0.13-1.29,0.26h0a6.941,6.941,0,0,1-1.547.25c-0.516.13-1.032,0.26-1.419,0.39-1.934.51-3.74,1.03-5.545,1.67a6.264,6.264,0,0,1-.9.39,0.449,0.449,0,0,0-.258.13,6.264,6.264,0,0,1-.9.39c-0.129,0-.258.12-0.386,0.12a27.714,27.714,0,0,0-2.709,1.29c-0.516.26-.9,0.52-1.418,0.78a52.946,52.946,0,1,0,77.763,52.16c0.129-1.55.258-3.22,0.258-4.9v-0.64C292,3552.38,292,3550.83,291.869,3549.41Zm-41.525-44.56a50.351,50.351,0,0,1,38.559,41.34,2.814,2.814,0,0,1-.645-0.64,8.392,8.392,0,0,1-1.547-1.55c-1.548-1.8-5.03-1.67-7.093-1.54h-0.774c-0.645-.13-2.45-1.8-3.869-3.48a1.322,1.322,0,0,0-1.289-.39l-0.9.26a1.168,1.168,0,0,0-.774.78,0.973,0.973,0,0,0,.129,1.03l3.1,5.28a1.366,1.366,0,0,0,1.161.64l3.611-.13c1.161,0.65,2.966,1.93,2.708,2.71-0.774.77-7.222,3.86-13.283,6.57a68.677,68.677,0,0,1-3.482-8.25,32.242,32.242,0,0,0-4-6.57,1.413,1.413,0,0,0-1.16-.51,0.964,0.964,0,0,0-.9.9,9.148,9.148,0,0,0,.516,5.54c0.387,0.77.9,1.93,1.547,3.22,1.032,2.19,2.322,4.89,2.58,5.67,0.257,0.64,0,2.96-.387,4.76a1,1,0,0,0,.258,1.03,1.456,1.456,0,0,0,1.031.39c6.706-.65,7.222-1.29,7.48-1.68a8.119,8.119,0,0,1,.774-0.51c-0.129.51-.387,1.16-0.645,1.93l-0.774,2.06c-0.9,2.58-3.611,5.54-8.124,8.63l-0.258.13c-1.29.9-1.032,3.09-.774,5.8a26.542,26.542,0,0,1,.258,2.7c-0.129.64-1.548,2.83-8,9.02l-0.9.9a19.062,19.062,0,0,0-2.451,3.47,5.3,5.3,0,0,1-.9,1.42c-0.516.52-4,1.55-5.675,1.55h-0.258a4.739,4.739,0,0,0-1.16-.26c-0.129-.77-0.774-1.8-2.451-4.64-1.16-2.06-3.224-5.41-3.224-6.31a6.983,6.983,0,0,1,1.161-3.73c0.258-.52.516-1.03,0.774-1.68,1.16-2.7-5.546-14.55-6.448-15.33-1.032-.9-3.482-1.03-5.417-1.03a12.486,12.486,0,0,0-4.384,1.29c-0.774-.26-3.224-1.29-11.478-5.79l-0.258-.13c-1.16-1.29-1.16-12.88-.516-15.84,0.516-1.94,8.125-7.47,9.672-8.25,1.032-.51,12.381-3.35,13.541-3.48a1.523,1.523,0,0,1,.258.91c0.129,1.16.645,5.02,3.095,5.66a3.545,3.545,0,0,0,1.161.13,11.658,11.658,0,0,0,4.643-1.16,33.55,33.55,0,0,1,4,.52c2.322,0.26,4.643.64,5.8,0.64a1.893,1.893,0,0,0,.9-0.13c0.387-.13,1.677-0.25,2.451-0.38,1.031-.13,2.063-0.26,2.708-0.39l1.032-.26a1.275,1.275,0,0,0,.9-1.28l-0.387-3.87a0.773,0.773,0,0,0-.386-0.77,1.083,1.083,0,0,0-.9-0.26h-1.29a8.468,8.468,0,0,1-1.934-.13,3.407,3.407,0,0,1-2.322-2.57,21.117,21.117,0,0,1,5.03-.39h4.514a3.085,3.085,0,0,0,2.321-1.29c0.645-1.16.129-2.7-.258-3.73-1.032-2.32-7.867-4.38-10.575-4.38H255.5c-2.966.13-3.611,3.86-3.74,5.66l-1.418.26a1.235,1.235,0,0,0-1.032,1.03,6.906,6.906,0,0,1-.774,2.32,1.442,1.442,0,0,1-1.289.64H247.12c-0.258-.12-0.9-0.77-0.387-2.44,0.774-2.45-3.353-4.77-6.964-6.44a1.039,1.039,0,0,0-1.419.38,1.179,1.179,0,0,0,0,1.55l3.224,4.38,0.258,0.77H241.7a1,1,0,0,0-.9.39c-0.129.13-.387,0.38-0.516,0.51a4.363,4.363,0,0,0-.258-1.8,7.333,7.333,0,0,0-6.061-5.28,1.083,1.083,0,0,0-.9.26,10.285,10.285,0,0,1-1.676,1.03h-0.258a4.952,4.952,0,0,0-2.709.25c-1.289.65-1.934,1.94-2.708,3.1a10.676,10.676,0,0,0-.645,1.03,7.4,7.4,0,0,0-.644,1.41c-0.258.65-1.419,1.03-3.353,1.03a24.9,24.9,0,0,1-3.224-.25v-4.51h0.773c1.29,0,2.837.13,3.74,0.13h0.9a1.48,1.48,0,0,0,1.419-.78c0.773-1.16.129-3.22-.516-4.76a1.31,1.31,0,0,0-1.032-.77,1.155,1.155,0,0,1-.645-0.13,20.41,20.41,0,0,0,2.193-.26,3.373,3.373,0,0,0,1.8-1.16l0.387-.39c0.9-.38,5.674-2.57,6.19-2.83a1.011,1.011,0,0,0,.516-0.52,5.933,5.933,0,0,0,.774-4.12,1,1,0,0,1,.258-1.03l1.676,2.45a1.17,1.17,0,0,0,1.032.52l7.222-.13a1.166,1.166,0,0,0,.9-0.39,7.539,7.539,0,0,0,1.548-2.96,3.949,3.949,0,0,1,1.676-.9A4.158,4.158,0,0,0,250.344,3504.85Zm3.095,21.77a1.858,1.858,0,0,0,.258-0.78c0-1.41.387-4.25,1.676-4.25,2.709,0,7.867,2.06,8.383,2.84a2.6,2.6,0,0,1,.387,1.54,0.563,0.563,0,0,1-.387.13H259.5C256.4,3525.97,254.6,3526.1,253.439,3526.62Zm-9.672-.78a1.66,1.66,0,0,0-.129.78l-0.516-1.29a0.127,0.127,0,0,0-.129-0.13A2.142,2.142,0,0,1,243.767,3525.84Zm-1.806-22.28a3.856,3.856,0,0,1-.387,1.16,0.361,0.361,0,0,1-.386.26c-0.516.38-1.548-.52-1.935-1.55A18.9,18.9,0,0,0,241.961,3503.56Zm-15.991,1.68a3.761,3.761,0,0,0-1.032,1.03,3.047,3.047,0,0,1-.9.9,1.555,1.555,0,0,1-.645.13,7.492,7.492,0,0,1-1.806-.26c-0.129-.13-0.258-0.13-0.386-0.26A22.921,22.921,0,0,1,225.97,3505.24ZM239,3604.28a50.368,50.368,0,0,1-20.634-96.34l0.258,0.26a11.436,11.436,0,0,1,1.032.64c0.645,0.77,2.708,1.03,3.611,1.03a3.5,3.5,0,0,0,1.805-.38,4.9,4.9,0,0,0,1.677-1.55,0.8,0.8,0,0,0,.258-0.51,1.35,1.35,0,0,0,1.16-.65,3.485,3.485,0,0,0,.387-2.06c0.258,0,.645-0.13.9-0.13a5.139,5.139,0,0,0,.774.9,1.165,1.165,0,0,0,1.418.13,29.419,29.419,0,0,1,3.482-1.8c0.516,0,.9-0.13,1.419-0.13,0.774,1.8,2.708,3.86,4.643,3.86a3.049,3.049,0,0,0,2.321-1.16,5.56,5.56,0,0,0,.9-2.57,27.057,27.057,0,0,1,2.708.39h0c-1.161.51-2.708,1.15-3.095,2.57a6.138,6.138,0,0,1-.645,1.55l-5.932.13-1.935-2.84a1.2,1.2,0,0,0-1.547-.38c-1.161.51-3.224,2.06-2.451,4.5a3.084,3.084,0,0,1-.386,1.81c-2.064,1.03-5.159,2.32-5.675,2.57a3.862,3.862,0,0,0-1.289,1.03c-0.129.13-.387,0.39-0.258,0.39-0.387,0-2.966.26-3.611,0.39a2.216,2.216,0,0,0-1.806.9,1.583,1.583,0,0,0,0,1.54c0,1.42,1.548,2.06,3.224,2.19a7.963,7.963,0,0,1,.387,1.42h0a35.974,35.974,0,0,0-3.869-.13c-1.289,0-3.095,0-3.224,1.55-0.129,2.7,0,6.44,0,6.57a1.223,1.223,0,0,0,.9,1.15,26.219,26.219,0,0,0,4.643.52c3.095,0,5.029-.9,5.674-2.71l0.129-.25c0-.13.129-0.39,0.129-0.52a8.276,8.276,0,0,1,.9-1.29,4.7,4.7,0,0,1,1.676-2.06h1.29a1.56,1.56,0,0,0,.774,0,5.865,5.865,0,0,0,2.579-1.16,4.839,4.839,0,0,1,3.482,3.35,3.618,3.618,0,0,1,.129,1.29c0,1.16.129,2.32,1.16,2.96a1.155,1.155,0,0,0,.645.13c0.258,0,.9,0,2.579-1.8h1.419a1.376,1.376,0,0,0,.774-0.26,3.741,3.741,0,0,0,2.192,2.06h0.645a3.905,3.905,0,0,0,3.482-1.93,8.608,8.608,0,0,0,.9-2.19l1.547-.26-0.387.39a1.571,1.571,0,0,0-.258,1.67c1.032,3.22,2.837,4.38,4.256,4.64a17.648,17.648,0,0,0,2.837.26l0.129,1.67a21.043,21.043,0,0,1-2.321.39,10.866,10.866,0,0,0-3.095.51,38.476,38.476,0,0,1-5.417-.64c-2.063-.26-3.739-0.52-4.513-0.52a1.443,1.443,0,0,0-1.032.39,8.075,8.075,0,0,1-3.482.77h-0.645c-0.387-.12-1.16-1.8-1.289-3.6a2.949,2.949,0,0,0-2.709-2.96h0a117.182,117.182,0,0,0-14.7,3.6c-0.645.26-10.059,6.31-10.962,9.92-0.387,1.93-1.547,16.74,1.548,18.55l0.387,0.13c10.316,5.66,11.993,6.18,12.767,6.18a1.376,1.376,0,0,0,.774-0.26,8.541,8.541,0,0,1,3.353-1.16,13.911,13.911,0,0,1,3.739.39c1.032,1.29,6.062,10.95,5.8,12.62-0.258.51-.387,0.9-0.645,1.42a9.156,9.156,0,0,0-1.419,5.02c0.129,1.42,1.548,3.86,3.611,7.34,0.774,1.42,1.935,3.35,2.064,3.61-0.258,1.8,1.418,2.06,1.934,2.19a3.562,3.562,0,0,1,.9.25,2.494,2.494,0,0,0,1.031.13c1.935,0,6.449-1.16,7.48-2.32a8.134,8.134,0,0,0,1.161-1.93,12.108,12.108,0,0,1,2.063-2.96l0.9-.9c6.319-6.05,8.64-8.89,8.769-10.56a29.867,29.867,0,0,0-.258-3.09,20.6,20.6,0,0,1-.258-3.48l0.258-.13c4.9-3.35,7.867-6.7,9.028-9.79l0.773-2.06c1.419-4.12,1.806-4.89.645-5.54a2.378,2.378,0,0,0-.9-0.26,7.235,7.235,0,0,0-4,1.94,24.244,24.244,0,0,1-4.256.77,22.922,22.922,0,0,0,.258-2.96,5.18,5.18,0,0,0,.774,1.41,1.235,1.235,0,0,0,1.547.52c14.7-6.44,15.347-7.6,15.476-8.12,1.031-2.19-.9-4.25-2.709-5.53,2.193,0.12,2.709.51,2.966,0.77a23.916,23.916,0,0,0,1.806,1.8,17.835,17.835,0,0,1,2.708,2.71,38.489,38.489,0,0,1,.129,3.86A50.245,50.245,0,0,1,239,3604.28Z" transform="translate(-186 -3501)"/>
</svg>
