<svg xmlns="http://www.w3.org/2000/svg" width="98" height="98" viewBox="0 0 98 98">
  <defs>
    <style>
      .cls-1 {
        fill: #ccc;
        fill-rule: evenodd;
      }
    </style>
  </defs>
  <path id="Forme_23" data-name="Forme 23" class="cls-1" d="M821.964,3498a0.821,0.821,0,0,0-.219.04,1.022,1.022,0,0,0-.365.18l-47.833,30.32a1.156,1.156,0,0,0-.547.98v65.31a1.166,1.166,0,0,0,1.167,1.17h95.666a1.166,1.166,0,0,0,1.167-1.17v-65.31a1.156,1.156,0,0,0-.547-0.98l-47.833-30.32a1.117,1.117,0,0,0-.656-0.22h0Zm0.036,2.59,46.666,29.55v63.53h-21v-34.99a1.172,1.172,0,0,0-1.166-1.17h-49a1.172,1.172,0,0,0-1.167,1.17v34.99h-21v-63.53L822,3500.59h0Zm-9.333,37.1a1.165,1.165,0,1,0,0,2.33h18.666a1.165,1.165,0,1,0,0-2.33H812.667Zm-14,22.16h46.666v10.49H798.667v-10.49Zm0,12.83h46.666v9.33H798.667v-9.33Zm0,11.66h46.666v9.33H798.667v-9.33Z" transform="translate(-773 -3498)"/>
</svg>
