<svg xmlns="http://www.w3.org/2000/svg" width="90" height="110" viewBox="0 0 90 110">
  <defs>
    <style>
      .cls-1 {
        fill: #d5d5d5;
        fill-rule: evenodd;
      }
    </style>
  </defs>
  <path id="Forme_24" data-name="Forme 24" class="cls-1" d="M203.318,3714.02l-0.73,14.48,9.287,2.45L200.1,3759.2l16.74-1.09,10.911,12.88,11.244-27,11.249,27,10.911-12.89,16.739,1.1-11.773-28.25,9.287-2.45-0.73-14.48,9.324-11.3-9.324-11.3,0.73-14.48-14.375-3.79L252.906,3661,239,3666.17l-13.91-5.17-8.129,12.15-14.37,3.79,0.73,14.48-9.324,11.3Zm23.329,49.84-8.182-9.66-12.555.82,9.631-23.1,1.417,0.37,8.129,12.15,11.429-4.24Zm45.436-8.84-12.555-.82-8.182,9.66-9.864-23.67,11.424,4.25,8.129-12.15,1.417-.37Zm-65.6-75.19,12.783-3.37,7.278-10.87,12.45,4.63,12.449-4.63,7.278,10.87,12.783,3.37-0.651,12.88,8.262,10.01-8.262,10.01,0.651,12.88-12.783,3.37-7.278,10.87L239,3735.22l-12.45,4.63-7.278-10.88-12.783-3.36,0.651-12.88-8.262-10.01,8.262-10.01ZM239,3725.48a22.761,22.761,0,1,0-22.5-22.76A22.633,22.633,0,0,0,239,3725.48Zm0-41.72a18.966,18.966,0,1,1-18.755,18.97A18.863,18.863,0,0,1,239,3683.76Z" transform="translate(-194 -3661)"/>
</svg>
