<?xml version="1.0" encoding="utf-8"?>
<!-- Generator: Adobe Illustrator 19.2.1, SVG Export Plug-In . SVG Version: 6.00 Build 0)  -->
<svg version="1.1" id="Calque_1" xmlns="http://www.w3.org/2000/svg" xmlns:xlink="http://www.w3.org/1999/xlink" x="0px" y="0px"
	 viewBox="0 0 77 109" style="enable-background:new 0 0 77 109;" xml:space="preserve">
<style type="text/css">
	.st0{fill:#D5D5D5;}
</style>
<g>
	<rect x="9.1" y="101.2" class="st0" width="58.5" height="3.3"/>
	<path class="st0" d="M63.4,67.7H50.5V51.1c-0.1-7.4,1.4-14.7,4.4-21.5c1.1-2.5,1.7-5.1,1.7-7.8c0-9.2-6.8-17-16-18.2
		C35.8,3,31,4.4,27.1,7.3c-3.9,3-6.3,7.3-6.9,12.1c-0.3,3.1,0.1,6.2,1.3,9.1c3.2,8,4.8,15.3,4.8,22.3v16.8H13.6
		C8,67.7,3.5,72.3,3.5,77.9V96h70V77.9C73.5,72.3,69,67.7,63.4,67.7z M24.5,27.4c-0.9-2.4-1.2-4.9-0.9-7.4
		c0.9-7.5,7.2-13.1,14.8-13.1c0,0,0,0,0.1,0c4,0,7.7,1.6,10.5,4.4c2.8,2.8,4.3,6.6,4.3,10.5c0,2.1-0.5,4.3-1.3,6.3
		c-3.1,6.5-4.7,14.2-4.7,22.8v16.8h-5.7h-6.2h-5.7V51.1C29.6,43.9,27.9,36.1,24.5,27.4z M70,92.2c0,0.3-0.2,0.5-0.5,0.5H7.3
		c-0.3,0-0.5-0.2-0.5-0.5l0-14.3c0-3.7,3.1-6.8,6.8-6.8h12.7h9h6.2h9h12.7c3.7,0,6.8,3.1,6.8,6.8V92.2z"/>
</g>
</svg>
