<svg xmlns="http://www.w3.org/2000/svg" width="132" height="68" viewBox="0 0 132 68">
  <defs>
    <style>
      .cls-1 {
        fill: #ccc;
        fill-rule: evenodd;
      }
    </style>
  </defs>
  <path id="Forme_22" data-name="Forme 22" class="cls-1" d="M1171.57,3547.72a19.271,19.271,0,0,1-8.2-4.93l-13.84-13.72a23.505,23.505,0,0,0-17.08-7.06q-18.72,0-37.46.01t-37.49.01h-1.51v58.83l16.82,0.02a11.587,11.587,0,0,0,22.58.04l52.93,0.08a11.592,11.592,0,0,0,22.59.03l10.02,0.02h0a6.951,6.951,0,0,0,5-2.11,7.206,7.206,0,0,0,2.08-5.08v-3.64A23.671,23.671,0,0,0,1171.57,3547.72Zm-10.32-2.74a24.815,24.815,0,0,0,2.56,2.21h-23.03a5.354,5.354,0,0,1-5.31-5.38v-16.52a20.511,20.511,0,0,1,11.95,5.98Zm-77.15,41.83a8.674,8.674,0,0,1-8.56-7.82c-0.03-.3-0.05-0.61-0.05-0.9v-0.02a8.745,8.745,0,0,1,1.32-4.62,8.6,8.6,0,0,1,7.29-4.11,8.69,8.69,0,0,1,8.62,8.73c0,0.31-.02.61-0.05,0.92A8.668,8.668,0,0,1,1084.1,3586.81Zm75.52,0.11a8.731,8.731,0,1,1,8.61-8.73c0,0.17-.01.34-0.02,0.51A8.665,8.665,0,0,1,1159.62,3586.92Zm24.17-10.15a4.005,4.005,0,0,1-2.86,1.21v1.53l-0.01-1.53-9.66-.02c0-.16-0.02-0.32-0.03-0.48-0.01-.2-0.02-0.41-0.04-0.6s-0.06-.39-0.09-0.58-0.06-.39-0.1-0.58-0.09-.38-0.14-0.56-0.09-.38-0.15-0.56-0.13-.36-0.19-0.54-0.13-.36-0.21-0.54-0.16-.34-0.24-0.51-0.16-.34-0.25-0.51-0.2-.32-0.29-0.48-0.19-.33-0.3-0.48-0.22-.31-0.33-0.46-0.22-.3-0.34-0.44-0.25-.28-0.38-0.42-0.24-.28-0.37-0.41-0.28-.26-0.42-0.39-0.27-.25-0.41-0.37-0.3-.23-0.45-0.34-0.29-.23-0.44-0.33-0.33-.2-0.5-0.31c-0.15-.09-0.3-0.19-0.46-0.27-0.17-.1-0.35-0.18-0.53-0.27-0.16-.07-0.32-0.16-0.48-0.23-0.19-.08-0.39-0.14-0.58-0.21-0.16-.06-0.32-0.13-0.48-0.18-0.21-.07-0.43-0.11-0.64-0.17-0.16-.04-0.31-0.09-0.47-0.12-0.24-.05-0.49-0.08-0.74-0.11-0.14-.02-0.27-0.05-0.41-0.07-0.38-.03-0.76-0.05-1.15-0.05-0.01,0-.02-0.01-0.03-0.01h0c-0.4,0-.79.03-1.18,0.06l-0.36.06c-0.26.03-.53,0.07-0.79,0.12-0.14.03-.27,0.07-0.41,0.11-0.23.05-.47,0.11-0.7,0.18-0.14.04-.27,0.1-0.41,0.15-0.22.08-.44,0.15-0.65,0.24-0.14.06-.27,0.13-0.41,0.2-0.2.09-.41,0.19-0.61,0.3-0.13.07-.26,0.15-0.38,0.23-0.2.11-.39,0.23-0.57,0.35-0.13.09-.25,0.18-0.37,0.27-0.18.13-.36,0.26-0.53,0.4-0.12.1-.22,0.21-0.34,0.31-0.16.15-.33,0.29-0.48,0.45-0.11.11-.21,0.23-0.32,0.34-0.15.16-.29,0.32-0.43,0.49-0.1.12-.19,0.25-0.29,0.38-0.13.17-.26,0.34-0.38,0.52-0.09.13-.17,0.27-0.26,0.41-0.11.18-.23,0.36-0.33,0.55-0.08.14-.15,0.3-0.22,0.45-0.09.19-.19,0.38-0.27,0.57-0.07.15-.12,0.32-0.18,0.48-0.08.19-.15,0.39-0.22,0.59-0.05.17-.09,0.34-0.14,0.51-0.05.2-.11,0.4-0.15,0.61-0.04.18-.06,0.35-0.09,0.53-0.04.21-.07,0.42-0.1,0.63-0.02.18-.02,0.37-0.03,0.55a4.213,4.213,0,0,0-.04.51l-52.23-.08c0-.17-0.02-0.33-0.03-0.49-0.01-.2-0.02-0.4-0.04-0.6s-0.06-.38-0.09-0.57-0.06-.4-0.1-0.59-0.09-.37-0.14-0.55-0.09-.39-0.15-0.57-0.13-.35-0.19-0.53-0.13-.37-0.21-0.54-0.16-.34-0.24-0.5c-0.08-.18-0.16-0.36-0.25-0.53-0.09-.15-0.19-0.31-0.28-0.46-0.1-.17-0.2-0.34-0.31-0.5s-0.21-.29-0.32-0.44-0.23-.31-0.35-0.46-0.24-.27-0.36-0.4-0.26-.29-0.39-0.43-0.27-.24-0.4-0.37-0.28-.26-0.43-0.38-0.29-.22-0.43-0.33c-0.16-.12-0.3-0.24-0.46-0.34s-0.32-.2-0.48-0.3-0.31-.2-0.48-0.29-0.34-.17-0.52-0.25c-0.16-.08-0.32-0.17-0.49-0.24s-0.38-.14-0.57-0.21c-0.16-.06-0.32-0.13-0.49-0.18-0.21-.07-0.42-0.11-0.62-0.17-0.16-.04-0.32-0.09-0.49-0.12-0.24-.05-0.48-0.08-0.72-0.11-0.14-.02-0.28-0.05-0.43-0.07a10.931,10.931,0,0,0-1.15-.06h-0.03a11.509,11.509,0,0,0-1.18.06c-0.13.01-.25,0.04-0.37,0.06-0.26.03-.53,0.07-0.78,0.12-0.15.03-.29,0.07-0.44,0.11-0.22.06-.45,0.11-0.67,0.18-0.15.04-.3,0.11-0.45,0.16-0.21.08-.41,0.14-0.61,0.23-0.16.07-.3,0.14-0.45,0.22-0.19.09-.38,0.17-0.56,0.27-0.15.08-.3,0.18-0.45,0.27-0.17.1-.34,0.2-0.51,0.31-0.14.1-.28,0.21-0.42,0.32-0.16.12-.32,0.23-0.47,0.35s-0.27.25-.4,0.37-0.29.25-.42,0.39-0.25.27-.37,0.4l-0.39.42-0.33.45c-0.11.15-.23,0.3-0.34,0.45s-0.19.32-.29,0.48-0.2.32-.29,0.48-0.17.34-.25,0.51-0.17.34-.25,0.51-0.13.36-.2,0.53-0.14.36-.2,0.55l-0.15.54c-0.05.2-.1,0.38-0.14,0.58-0.04.18-.07,0.37-0.1,0.56l-0.09.6c-0.02.19-.03,0.38-0.04,0.57-0.01.17-.03,0.33-0.03,0.49l-13.45-.02v-5.04h6.31a1.54,1.54,0,0,0,0-3.08h-6.31v-44.56q17.985,0,35.97-.01,18.735-.015,37.45-0.01v16.72a8.4,8.4,0,0,0,8.34,8.45h28.74c0.38,0.14.77,0.27,1.17,0.4a20.577,20.577,0,0,1,14.27,19.01h-11.78a1.54,1.54,0,0,0,0,3.08h11.8v1.11A4.125,4.125,0,0,1,1183.79,3576.77Zm-51.34-16.74h8.84a1.535,1.535,0,0,0,0-3.07h-8.84A1.535,1.535,0,0,0,1132.45,3560.03Zm10.74,9.64h-43.05a1.54,1.54,0,0,0,0,3.08h43.05A1.54,1.54,0,0,0,1143.19,3569.67Zm-59.09,3.85a4.555,4.555,0,1,0,4.5,4.55A4.528,4.528,0,0,0,1084.1,3573.52Zm0,6.04a1.485,1.485,0,1,1,1.47-1.49A1.481,1.481,0,0,1,1084.1,3579.56Zm75.52-5.93a4.561,4.561,0,1,0,4.49,4.56A4.531,4.531,0,0,0,1159.62,3573.63Zm0,6.04a1.48,1.48,0,1,1,1.46-1.48A1.466,1.466,0,0,1,1159.62,3579.67Z" transform="translate(-1056 -3522)"/>
</svg>
