<?xml version="1.0" standalone="no"?>
<!DOCTYPE svg PUBLIC "-//W3C//DTD SVG 1.1//EN" "http://www.w3.org/Graphics/SVG/1.1/DTD/svg11.dtd">
<svg xmlns="http://www.w3.org/2000/svg">
<metadata>Copyright (C) 2017 by original authors @ fontello.com</metadata>
<defs>
<font id="tang" horiz-adv-x="1000" >
<font-face font-family="tang" font-weight="400" font-stretch="normal" units-per-em="1000" ascent="850" descent="-150" />
<missing-glyph horiz-adv-x="1000" />
<glyph glyph-name="telecharger" unicode="&#xe800;" d="M840-150h-680c-30 0-57 27-57 57 0 30 27 56 57 56 0 0 0 0 0 0h683c30 0 57-26 57-56-3-34-27-57-60-57 0 0 0 0 0 0z m-340 233c-30 0-57 27-57 57v447c0 30 27 56 57 56 30 0 57-26 57-56v-447c0-33-27-57-57-57 0 0 0 0 0 0l0 0 0 0z m0-23c-30 0-57 27-57 57 0 13 7 30 17 40l193 193c24 23 57 23 80 0 24-23 24-57 0-80l0 0-193-193c-10-10-23-17-40-17l0 0z m0 0c-13 0-30 7-40 17l-193 190c-24 23-24 56 0 80 23 23 56 23 80 0l0 0 193-194c23-23 23-56 0-80-10-6-23-13-40-13l0 0z m443 233c-30 0-56 27-56 57 0 0 0 0 0 0 0 213-174 387-387 387-213 0-387-174-387-387 0-30-26-57-56-57-30 0-57 27-57 57 0 277 227 500 500 500 273 0 497-223 500-500 0-30-27-57-57-57 0 0 0 0 0 0l0 0 0 0z" horiz-adv-x="1000" />

<glyph glyph-name="home" unicode="&#xe801;" d="M990 427l-470 383c-10 10-27 10-37 0l-473-383c-10-10-13-27-3-37 0 0 0 0 0 0 6-7 13-10 20-10 6 0 13 3 16 7l4 3v-480c0-17 13-27 26-27h844c16 0 26 10 26 27v483l7-3c13-10 30-7 40 3 13 7 10 24 0 34 0 0 0 0 0 0z m-380-487h-223v310h223l0-310 0 0z m283-3h-226v340c0 16-14 26-27 26h-280c-17 0-27-10-27-26v-340h-226v496l393 320 390-316 3-500 0 0z" horiz-adv-x="1000" />

<glyph glyph-name="timer" unicode="&#xe802;" d="M393 850c-16 0-30-13-30-30 0 0 0 0 0 0v-113c0-17 14-30 30-30 0 0 0 0 0 0h17v-40c-73-20-140-57-193-110-154-154-157-404-4-557 0 0 4-3 4-3 156-154 410-154 566 0 154 153 157 403 4 556 0 0-4 4-4 4-53 53-120 90-193 106v40h17c16 0 30 14 30 30 0 0 0 0 0 0v120c-4 14-17 27-30 27l-214 0 0 0z m30-60h150v-53h-150v53z m50-117h54v-33c-17 0-37 0-54 0v33z m27-90c90 0 177-36 240-96 130-130 133-340 3-470 0 0-3-4-3-4-133-130-347-130-477 0-130 130-130 344 0 474 60 60 147 96 237 96l0 0 0 0z m170-130c-7 0-13-3-20-10l-110-110c-13 7-27 10-40 10-53 0-93-43-97-93 0-53 44-93 94-97 0 0 0 0 0 0 53 0 93 44 93 94 0 13-3 26-10 40l110 110c13 10 13 30 0 43 0 10-10 13-20 13l0 0z m-170-173c17 0 33-13 33-33 0-17-13-34-33-34-17 0-33 14-33 34 0 20 16 33 33 33l0 0z" horiz-adv-x="1000" />

<glyph glyph-name="four" unicode="&#xe803;" d="M1146 850h-1042c-58 0-104-46-104-104v-759c0-58 46-104 104-104h71c0-16 13-33 33-33 0 0 0 0 0 0h146c21 0 34 17 34 33 0 0 0 0 0 0h475c0-21 16-33 33-33 0 0 0 0 0 0h146c21 0 33 17 33 33 0 0 0 0 0 0h71c58 0 104 46 104 104v759c0 58-46 104-104 104 0 0 0 0 0 0z m33-863c0-20-16-33-33-33 0 0 0 0 0 0h-1042c-21 0-33 17-33 33 0 0 0 0 0 0v759c0 21 12 33 33 33 0 0 0 0 0 0h1042c21 0 33-16 33-33 0 0 0 0 0 0l0-759 0 0 0 0z m-371 726h-633c-21 0-33-17-33-34 0 0 0 0 0 0v-621c0-20 16-33 33-33 0 0 0 0 0 0h633c21 0 34 17 34 33 0 0 0 0 0 0v617c0 21-13 38-34 38 0 0 0 0 0 0l0 0z m-33-621h-567v550h567l0-550 0 0z m333 621h-183c-21 0-33-17-33-34 0 0 0 0 0 0v-183c0-21 16-33 33-33 0 0 0 0 0 0h183c21 0 34 16 34 33 0 0 0 0 0 0v179c4 21-13 38-34 38 0 0 0 0 0 0l0 0z m-33-188h-117v117h117v-117l0 0z m-129-121h-21c-21 0-33-16-33-33 0-21 16-33 33-33 0 0 0 0 0 0h21c12-13 46-5 62 8 13 12 17 33 0 50s-33 17-50 0c0-4 0-4-12 8l0 0z m162 0h-20c-21 0-34-16-34-33 0-21 17-33 34-33 0 0 0 0 0 0h20c21 0 34 16 34 33 4 17-13 29-34 33 0 0 0 0 0 0l0 0z m-162-121h-21c-21 0-33-16-33-33 0 0 0 0 0 0 0-21 16-33 33-33h21c21 0 33 16 33 33 4 17-12 33-33 33 0 0 0 0 0 0l0 0z m162 0h-20c-21 0-34-16-34-33 0 0 0 0 0 0 0-21 17-33 34-33h20c21 0 34 16 34 33 4 17-13 33-34 33l0 0z m-162-120h-21c-21 0-33-17-33-34 0-21 16-33 33-33h21c21 0 33 17 33 33s-12 34-33 34l0 0z m162 0h-20c-21 0-34-17-34-34 0-21 17-33 34-33h20c21 0 34 17 34 37 0 13-13 30-34 30l0 0z" horiz-adv-x="1250" />

<glyph glyph-name="9-magasins" unicode="&#xe804;" d="M450 163c0-10 7-16 17-16h393c10 0 17 6 17 16v274c0 10-7 16-17 16h-397c-10 0-16-6-16-16 3-4 3-274 3-274z m30 257h360v-240h-360c0-3 0 240 0 240z m-363 180c33 0 66 17 90 43l3 7 7-7c23-26 53-43 90-43 33 0 66 17 90 43l6 7 7-7c23-26 53-43 90-43 33 0 67 17 90 43l7 7 6-7c24-26 54-43 90-43 34 0 67 17 90 43l4 7 6-7c24-26 54-43 90-43 67 0 117 50 117 117v116c0 10-7 17-17 17h-966c-10 0-17-7-17-17v-116c0-67 50-117 117-117z m-84 217h934v-100c0-47-37-84-84-84-36 0-70 24-80 60-3 7-6 10-16 10h-4c-6 0-13-3-16-10-10-33-44-56-80-60-37 0-70 24-80 60-4 7-7 10-17 10h-3c-7 0-14-3-17-10-10-33-43-56-80-60-37 0-70 24-80 60-3 7-7 10-17 10h-3c-7 0-13-3-17-10-10-33-43-56-80-60-36 0-70 24-80 60 14 4 7 7 0 7h-3c-7 0-13-3-17-10-13-43-60-70-103-57-33 14-60 47-57 84l0 100 0 0z m947-294c-10 0-17-6-17-16v-624h-930v624c0 10-6 16-16 16-10 0-17-6-17-13 0 0 0 0 0 0v-640c0-13 7-20 17-20h963c10 0 17 7 17 17l0 0v640c-4 10-10 16-17 16z m-843-73c-10 0-17-7-17-17v-433c0-10 7-17 17-17h200c10 0 16 7 16 17v433c0 10-6 17-16 17 0 0-200 0-200 0z m183-433h-167v166h70c10 0 17 7 17 17 0 10-7 17-17 17h-70v203h167v-403z" horiz-adv-x="1000" />

<glyph glyph-name="5-traiteurs" unicode="&#xe805;" d="M993 110h-83l0 17c-10 210-173 376-380 393l-30 0-30-3c-203-14-367-184-380-390l0-17h-83c-4 0-7-3-7-10 0-3 3-7 7-7h983c3 0 7 4 7 7 0 3 0 3 0 7 0 3 0 3-4 3z m-886 0l0 17c13 210 186 376 393 376s380-166 393-376l0-17c0 0-786 0-786 0z m373 437l20-20 20 20c10 6 13 16 13 26 0 17-13 34-33 34s-33-14-33-34c0 0 0 0 0 0 0-10 6-20 13-26z m100-114c-10-6 0-10 0-10 163-83 193-213 200-223 7-10 13 0 13 0-46 177-213 233-213 233z" horiz-adv-x="1000" />

<glyph glyph-name="3500-produits" unicode="&#xe806;" d="M993 23c-3 0-10 0-10-3l-3 0h-187l7 10c33 50 50 110 50 173 0 110-53 210-133 254l-7 3 3 7c24 73 97 100 97 100 3 3 7 6 7 13 0 3-4 3-7 7-30 10-60 13-93 6l-17-13 7 13c20 50 50 70 50 74 3 3 3 6 3 10 0 3-3 6-7 6-20 10-46 10-66 0-4 0-4-3-7-3l-10-7-3 10c-4 20-14 60-30 84l-4 3 0 0c0 0 0 0 0 0 0 0 0 0 0 0h0c0 0 0 0 0 0l0 0v-3l-3 0 0 0c-17-24-27-64-30-84l-3-10-10 7c0 0 0 0 0 0-24 13-50 13-74 3-3 0-6-3-6-6 0-4 0-7 3-10 0 0 30-24 50-74l7-13-20 3c-30 7-64 4-94-6-3-4-6-7-6-14 0-3 3-3 6-6 0 0 74-24 97-97l3-7-6-3c-20-10-37-23-50-37-34-33-60-76-70-123l0-7-7 4c-3 0-7 3-10 3-23 10-47 7-70 3-7 0-13 0-20-3l-10 0 0 10c3 33 20 63 47 83 3 4 3 10 3 14-3 3-10 3-13 0-10-7-17-17-24-27l-10-13-3 16c-7 34-37 60-73 60-7 0-14 0-20-3-4 0-7-3-7-7-13-40 10-83 50-96 0 0 0 0 0 0 7-4 13-4 23-4 4 0 7 0 10 0l10 0-3-3c-3-7-3-13-3-23l0-7-7 0c-7 0-13 0-20 3l-3 0c-24 4-47 7-70-3-54-20-84-73-74-143 4-40 27-87 60-120l14-10h-187c-7 0-10-4-10-7 0-7 3-10 10-10h133l34-47c10-16 30-23 50-23h536c20 0 37 10 50 23l34 47h133c20 0 23 3 23 10-3 3-6 10-10 13z m-696 330l0 0 0-6-7 0c-3 0-3 0-7 0-33 0-56 26-56 60 0 3 0 3 0 6l0 7 6 0c4 0 4 0 7 0 33 0 57-27 57-60 0 0 0-3 0-7z m506-276c-10-20-20-40-33-57l0-3h-13l-44 43 57 57 37-37-4-3z m-343-4l0 0 0 7c3 3 3 7 7 10l0 0 26 27 57-57-43-43h-14l-3 3c-10 17-20 33-30 53l0 0z m10-56h-60l13 13c7 7 14 13 17 20l7 10 6-10c4-7 7-13 14-20l3-13z m107 183l56 57 57-57-57-57-56 57z m43-70l-57-57-56 57 56 57 57-57z m80 57l57-57-57-57-57 57 57 57z m13 13l57 57 57-57-57-57-57 57z m-13 13l-57 57 57 57 57-57-57-57z m-67 70l-56 57 56 57 57-57-57-57z m-13-13l-57-57-56 57 56 57 57-57z m-70-70l-57-57-10 10 0 4c4 26 0 50-10 76l-3 4 23 23 57-60z m13-153l30-30h-60l30 30z m14 13l56 57 57-57-43-43h-27l-43 43z m123-13l30-30h-60l30 30z m127 110c-4-17-7-30-10-47l0-7h-10l-24 24 47 46-3-16z m-10 133c3-17 6-30 10-47l0-6h-10l-4 3-33 33 30 30 7-13z m-50 97c13-17 26-37 36-60l4-10h-7l-30-34-57 57 50 50 4-3z m-24 23l14-13h-17l-40-44-57 57 37 37 3 0c24-10 44-20 60-37l0 0z m14 160l3 0 0-7 3-3-3-3c-30-20-53-50-67-87l-3-7-7 4c-16 6-33 6-50 6l-10 0 4 10c10 27 26 47 50 64 23 16 53 23 80 23l0 0z m-60 93c6 4 13 7 23 7l17 0-10-13c-20-27-37-54-47-87l0-3-3 0c-4-4-7-4-10-7-4-3-7-3-7-7l-10-6-3 10c0 6-4 13-7 20l0 3 0 3c10 30 23 54 37 67h-10l30 13z m-90-6c3 23 10 46 16 70l-3 6h20l-3-6c6-24 13-47 16-70l0-4-3-3c-7-10-13-20-17-30l0-10-6 13c-4 10-10 20-17 30l-3 4 0 0z m-70 3l0 0 3 7 0 6 7 0c10 0 16-3 23-6 27-17 47-57 60-114l7-23-17 17c-10 10-20 16-33 26l-4 0 0 4c-10 26-23 56-46 83l0 0z m-34-103l0 0 0 6 0 7 4 0c43 3 86-20 113-53l3-4-3-3c-7-10-10-20-13-30l0-3-4 0c-6 0-13-4-23-7l-7-3-3 6c-13 34-37 64-67 84l0 0z m17-147c13 13 33 23 50 33l-3 4h46l-6 6 16 0c10 0 17 0 27 0l17 0-34-30-16 17-20-7 23-23-57-57-50 50 7 7z m-60-83c10 20 20 36 33 53l-6 7h33l-7-7 40-40-60-57-36 37 3 7z m-17-50c0 3 4 10 4 13l3 10 30-30-20-20-7 7c-3 3-6 10-13 13l-3 3 6 4z m-303-127c-7 80 30 110 63 123 20 7 40 7 60 4 27-4 54-4 77 0 23 3 40 6 60-4 33-13 70-43 63-123-3-40-33-100-83-133l-3 0h-150l-4 0c-50 36-80 93-83 133z m657-183c-7-10-20-17-34-17h-536c-14 0-27 7-34 17l-26 33h656l-26-33z" horiz-adv-x="1000" />

<glyph glyph-name="700-employes" unicode="&#xe807;" d="M500 287c140 0 243 190 243 316 0 134-106 244-243 244s-243-110-243-244l0 0c0-126 103-316 243-316z m0 530c80 0 150-47 187-117-57 30-127 30-180-7-40-23-90-30-134-13l-56 23c33 70 106 114 183 114z m-197-140l57-27c53-23 113-17 160 17 93 56 180-14 180-14 3-16 7-33 7-50 0-126-100-286-210-286s-210 160-210 286c3 24 6 50 16 74z m494-394l-100 34c0 0-77-94-197-94-113 0-197 94-197 94l-100-34c-83-30-136-110-140-196v-237h870v237c0 86-53 166-136 196l0 0z m106-400h-130v97h-33v-97h-483v97h-34v-97h-126v204c0 76 46 143 116 166 0 0 67 24 80 27 104-113 280-120 394-17 6 7 13 10 16 17 14-3 80-27 80-27 70-26 117-93 117-166v-204z m-256 224h130v-34h-130v34z" horiz-adv-x="1000" />

<glyph glyph-name="facebook" unicode="&#xe808;" d="M500 850c-277 0-500-223-500-500s223-500 500-500 500 223 500 500-223 500-500 500l0 0z m107-500h-70v-250h-104v250h-50v90h50v57c0 40 20 103 104 103l76 0v-87h-56c-14 0-20-10-24-20 0 0 0-3 0-3v-53h80l-6-87z" horiz-adv-x="1000" />

<glyph glyph-name="twitter" unicode="&#xe809;" d="M500 850c-277 0-500-223-500-500s223-500 500-500 500 223 500 500-223 500-500 500l0 0z m200-397c0-3 0-10 0-13 0-160-130-293-290-293-57 0-110 16-157 46 7 0 17 0 24 0 46 0 90 17 126 44-43 0-83 30-96 70 6 0 13-4 20-4 10 0 16 0 26 4-46 10-83 53-83 100v0c13-7 30-14 47-14-47 30-60 90-34 137 54-63 130-103 210-107-3 7-3 17-3 24 0 56 47 103 103 103 27 0 57-13 74-33 23 3 46 13 66 23-6-23-23-43-46-57 20 4 40 7 60 17-10-17-27-33-47-47z" horiz-adv-x="1000" />

<glyph glyph-name="linkedin" unicode="&#xe80a;" d="M530 387l0 0c0 0 0 0 0 0l0 0z m-30 463c-277 0-500-223-500-500s223-500 500-500 500 223 500 500-223 500-500 500l0 0z m-137-740h-106v323h106v-323z m-53 367l0 0c-33 0-63 26-60 60 0 33 27 60 60 60 33 0 60-27 60-60 0-34-27-60-60-60z m440-367h-107v173c0 44-16 74-53 74-23 0-47-17-53-40-4-10-4-17-4-27v-180h-106c0 0 0 293 0 323h106v-46c20 33 57 53 97 53 70 0 123-47 123-147l-3-183 0 0z" horiz-adv-x="1000" />

<glyph glyph-name="youtube" unicode="&#xe80b;" d="M497 427c3 0 6 0 10 3 3 3 3 7 3 10v77c0 3 0 6-3 6-4 4-7 4-10 4-4 0-7 0-10-4-4-3-4-3-4-6v-77c0-3 0-7 4-10 3-3 6-3 10-3z m63-140c-3 0-7 0-13-4-4-3-7-6-10-10v57h-27v-170h27v10c3-3 6-7 10-10 3-3 10-3 13-3 7 0 13 3 17 6 3 7 6 14 6 20v70c0 10 0 17-6 24-4 6-10 10-17 10l0 0z m-3-100c0-4 0-7-4-10-3-4-3-4-6-4-4 0-4 0-7 0-3 0-3 4-7 4v80c0 0 4 3 7 3 3 0 3 0 7 0 3 0 6 0 6-3 4-4 4-7 4-10l0-60 0 0z m-237 116h30v-146h30v146h30v24h-90l0-24 0 0z m147-116c-4-4-4-4-7-7-3 0-3-3-7-3-3 0-3 0-6 3 0 3-4 3 0 7v96h-27v-106c0-7 0-14 3-17 4-3 7-7 14-7 6 0 10 0 13 4 7 3 10 6 13 10v-14h27v130h-23l0-96 0 0z m33 663c-277 0-500-223-500-500s223-500 500-500 500 223 500 500-223 500-500 500l0 0z m60-307h30v-106c0-4 0-7 3-7 0-3 4-3 7-3 3 0 7 0 7 3 3 3 6 3 10 7v106h30v-140h-30v17c-4-7-10-10-17-13-7-4-10-4-17-4-6 0-10 4-13 7-3 7-7 13-3 20l-7 113 0 0z m-107-30c0 10 4 20 10 27 10 7 24 10 34 10 10 0 20-3 30-10 6-7 10-17 10-27v-73c0-10-4-20-10-27-10-6-20-10-30-10-10 0-24 4-30 10-7 7-14 17-10 27l-4 73 0 0z m-76 80l20-76h3l20 76h33l-36-110v-80h-34v74l-36 113h30l0 3z m373-396c0-50-40-90-90-90h-317c-50 0-90 40-90 90 0 0 0 0 0 0v73c0 50 40 90 90 90h317c50 0 90-40 90-90v-73z m-117 90c-10 0-20-4-26-10-7-7-10-17-10-27v-57c0-10 3-20 10-30 6-6 16-10 26-10 10 0 20 4 30 10 7 7 10 20 10 30v7h-26v-7c0-3 0-10-4-13-3-3-6-3-10-3-3 0-6 0-10 3-3 3-3 10-3 13v24h50v33c0 10-3 20-10 27-7 6-17 10-27 10l0 0z m10-50h-23v13c0 3 0 7 3 10 4 3 7 3 10 3 4 0 7 0 10-3 4-3 4-7 4-10l-4-13 0 0z" horiz-adv-x="1000" />

<glyph glyph-name="localiser" unicode="&#xe80c;" d="M500 650c-117 0-210-93-207-210 0-117 94-210 210-207 117 0 207 94 207 210 0 114-93 207-210 207z m0-367c-87 0-160 74-157 160 0 87 74 160 160 157 87 0 157-70 157-160 0-87-73-157-160-157 0 0 0 0 0 0z m0 567c-3 0-10 0-13 0-224-7-400-193-394-417 0-20 4-43 7-63 0-3 3-10 3-13 7-27 17-54 27-80 43-100 133-250 333-414 20-16 54-16 74 0 200 164 290 317 330 414 13 26 20 53 26 80 0 3 4 10 4 13 3 27 6 50 6 77 0 223-180 403-403 403z m350-473c0-4 0-7-3-10-7-24-14-47-24-70-40-94-126-237-316-394 0 0-4-3-7-3-3 0-3 0-7 3-190 157-276 304-316 397-10 23-20 47-24 70 0 7-3 10-3 10 0 0 0 0 0 0-7 33-7 67-3 103 20 194 193 334 390 314 180-20 320-170 320-354 0-20-4-43-7-66z" horiz-adv-x="1000" />

<glyph glyph-name="fleche-gauche" unicode="&#xe80d;" d="M273 320l384-453c16-20 43-20 63-7 20 17 20 43 7 63 0 0 0 0 0 0l-360 427 360 427c16 20 13 46-7 63-20 17-47 13-63-7l-384-456c-6-7-10-17-10-27 0-10 4-20 10-30z" horiz-adv-x="1000" />

<glyph glyph-name="fleche-droite" unicode="&#xe80e;" d="M727 380l-384 453c-16 20-43 24-63 7-20-17-20-43-7-63 0 0 0 0 0 0l360-427-360-427c-16-20-13-46 7-63 20-17 47-13 63 7l384 456c6 7 10 20 10 30 0 10-4 20-10 27z" horiz-adv-x="1000" />

<glyph glyph-name="fleche" unicode="&#xe80f;" d="M1000 350c0 7-3 13-7 17l-126 136c-10 7-27 10-37 0-10-10-10-26 0-36l90-97h-897c-13 3-23-7-23-20s10-23 23-27c0 0 4 0 4 0h896l-90-96c-10-10-10-24 0-34 10-10 24-10 34 0 0 0 0 0 3 4l127 136c0 7 3 10 3 17z" horiz-adv-x="1000" />

<glyph glyph-name="fermer" unicode="&#xe810;" d="M26-150l-26 26 947 948 27-27-948-947z m974 39l-26-26-961 957 30 30 957-961z" horiz-adv-x="1000" />

<glyph glyph-name="recherche" unicode="&#xe811;" d="M1003 435c0-230-187-418-418-414-100 0-200 36-274 103l-264-264c-3-3-10-7-17-7-13 0-23 10-23 27 0 7 3 13 6 17l268 264c-154 174-137 435 37 589s435 137 588-37c61-80 97-177 97-278z m-786 0c0-204 164-368 368-368 204 0 368 164 368 368 0 204-164 368-368 368 0 0 0 0 0 0-200-3-364-167-368-368z" horiz-adv-x="1003" />

<glyph glyph-name="tang-gourmet" unicode="&#xe812;" d="M0 313c0 17 3 34 13 50 10 20 27 37 44 47 6 3 13 7 20 7 0 0 3 0 3 0 0-4 0-4-3-4-4 0-4-3-7-3-20-13-33-33-37-57 0-20 0-33 0-50 0-30 17-53 40-70 27-16 60-13 84 7 16 17 30 40 30 63 3 24-4 50-14 70-6 14-16 24-30 34-3 0-3 3-6 3 0 0 0 3 0 3 0 0 3 0 3 0 3 0 3 0 7 0 26-10 46-26 60-50 20-33 20-76-4-110-20-33-56-53-93-50-33 0-63 14-83 40-17 20-27 44-27 70z m103 137c0 3 4 3 4 7 3 3 6 6 10 10 0 0 3 3 6 3 4 0 4 0 4-3 0-4 0-4 0-7 0 0-4-3-4-3-6-4-13-10-20-20-3-7-3-14 0-20 0-4 4-7 4-7 6-10 13-20 20-30 6-7 10-17 10-27 0-13 0-26 0-36 0-17-7-30-20-40-4-4-4-4-7-7-3-3-10-3-13 0 0 0 0 3 0 3 0 0 3 4 3 4 3 3 10 6 13 6 7 7 14 14 14 24 0 0 0 3 0 3-4-3-7-7-10-10-4-3-7-7-10-7-4 0-7 0-7 0-3 0-3 4-3 7 0 0 0 0 0 0 3 0 3 3 6 3 4 4 10 7 14 10 3 4 6 10 6 14 0 0 0 3 0 3-3 10-6 17-13 27-3 13-10 20-13 26-4 4-4 10-7 17 0 3 0 7 0 13 0 14 0 30 0 44 0 0 0 0 0 3 3 13 13 27 23 33 4 0 4 4 7 4 3 0 7-4 7-4 0 0 0 0 0 0 0 0 0-3-4-3-3-3-6-7-10-10-6-7-13-13-13-23 0-4 0-7 3-7l0 0z m24-93c0 0 0 0 0 0 0 3 0 3 0 6 0 4 0 4-4 7-3 7-10 17-13 23-3 4-3 7-7 7 0 0-3 3-3 3 0 0 0 0 0 0 0 0 0-3 0-3 0-3 0-7 3-7 7-10 10-16 17-26 0-4 3-4 3-4 0-6 4-6 4-6z m270-34c0-6 0-6 6-10 10-6 20-13 30-20 4-3 4-6 4-10 0-3-4-6-7-10-3 0-7 4-7 4-6 6-13 13-20 20 0 0-3 0-3 0 0-7 0-17 0-24 0-3 0-10-7-10-3 0-6 0-10 7 0 0 0 0 0 3 0 7-3 17-3 24-7-4-10-17-23-14-4 0-7 4-10 7 13 7 23 17 30 30-4 0-7 0-7 0-3 0-7 0-10 3 0 0 0 0 0 4 0 6-3 13-7 20-6-4-10-7-10-14 0-16 0-36-3-53 0-3-3-7-7-7 0 0 0 0-3 0-3 0-7 4-7 7 0 0 0 0 0 3 0 17 0 37 0 54 0 10 0 20 0 30-10 3-10 6-3 16 0 4 3 4 3 7 0 3 4 10 10 7 0 0 0 0 0 0 4 0 4 0 7 0 3 0 7 3 10 6 10 4 13 4 13-6 4 0 7 0 7 3 3 0 7 0 10 3 0 4-3 7-3 10 0 4 0 4 0 7 3 3 3 3 6 3 7 0 14-6 14-16 6 0 10 0 16 0 4 0 7-4 7-7 0 0 0 0 0 0 0-3-3-7-3-7 0 0 0 0 0 0-4 0-10 0-14 0v-3l14 0c13 0 20-7 13-20-7-30-17-40-33-47l0 0z m-24 57c-13 3-16 0-16-10 6 0 10 3 16 10z m34-13c-4-4-4-4-7-7 3 0 3-3 7-3 3 0 3 3 6 3l-6 7z m-24-10c-3 0-3 3 0 0-6 0-10-4-13-7 0 0 0 0 0-3 7 3 10 6 13 10z m-40-7c10 7 0 10 0 17v-17z m604-53c3-4 6-4 10-7 3-3 6-7 6-13 0-4 0-7-3-10-3 0-7 0-10 3-3 3-7 7-7 10-3 3-3 3-6 7-4-7-7-17-10-24-4-6-7-10-10-10-4 4-10 7-10 10 0 4-4 10-4 14 0 13 0 26 0 40 0 6-3 13-6 16-4-3-4-6-7-10-3-6-10-10-13-6-7 3-10 6-10 13 0 7 3 7 10 7 3 0 6 0 6 3 14 20 27 37 40 57 0 3 4 6 4 6 0 4 3 7 6 7 0 0 0 0 0 0 7 0 10-3 10-10 0 0 0 0 0 0-3-20 10-27 20-37 10-10 24-16 34-23 3-3 3-3 6-7-3 0-6-3-10-3-16 7-30 13-40 27-3 6-10 10-13 13 0 0-3 3-7 0-3-3-3-3-6-7 0 0 3-3 3-3 3 0 3 0 7 0 3-3 6-3 6-7 0-3-3-3-6-6-4 0-7-4-10-7 3 0 10 3 13 3 3 0 10 0 10-6 0 0 0-4 0-4 0-10-3-20-3-26 0-7-7-10-10-7 0 0 0 0 0 0-4 0-4 0-7 0 3-3 7-3 10-3 0 0 0 0 0 0 3 3 7 10 10 13 3 3 3 7 7 7 3 0 6-4 6-4 0-3 0-10-3-13 0 3-7 0-13-3z m-27 0c0 0 0 0 0 0l-3-17c0 0 0 0 3 0 3 3 3 7 7 10-4 3-4 3-7 7l0 0z m-3 40c3-4 3-4 0 0 10 0 13 0 13 10-3-7-7-7-13-10l0 0z m6-20c4 3 4 3 4 6 0 0-4 4-4 4-3 0-3-4-3-4l3-6z m-170-17c-3-3-6-7-10-13-6-7-13-14-20-20-6-4-13-4-20 0 0 0-3 3-3 3 0 3 3 3 3 3 10 4 17 14 24 24-7-4-14-7-20-7-7-3-10-3-17-3-3 0-7 3-7 6 0 4 4 7 4 7 3 0 6 3 10 3 10 4 20 4 30 7 3 0 6 3 6 10 0 0 0 3 0 3-3-3-10-6-13 0-3 4-3 7-3 10 0 0 3 4 3 4 3 3 10 3 13 6 0 0 0 4 4 7-4 0-10 0-14 0-3 0-3 3-6 3 0 4 0 7 3 7 7 3 13 7 23 10 0 0 4 0 4 3l0 4c-7-4-14-4-17-7-7-3-13-3-17 3 0 0 0 0 0 0-3 4-3 7-3 10 3 4 7 7 10 7 0 0 0 3-3 7-4 10 0 16 10 13 6 0 10-7 10-10 0-3 0-7 3-10 0-3 0-3 3-3 4 0 7 0 7 3 3 3 3 10 7 13 3 4 3 7 6 10 7 4 10 4 14-6 0-4 3-7 6-10 4-4 7-7 7-14 0-3-7-6-10-6 0 0 0 0 0 0-7 0-10 0-17 0 0 0-3 0-3-4 7-3 13 0 13-10 0-10-6-10-13-13 3 0 3 0 7 0 3 0 3-3 6-3 0-4-3-7-3-7-3-3-7-3-10-3 0-4 0-10-3-14 3 0 6 0 10 4 10 3 23 3 36 0 7 0 10-7 10-10 0 0 0 0 0 0 0-4-3-7-10-7 0 0 0 0 0 0-6 0-13 0-16 0-4 0-10 0-14 0 0 0 0-3 0-3 4 0 4-4 7-4 7-6 13-13 20-20 3-3 3-10 0-13 0 0-3-3-3-3-7-4-14 0-20 6-4 10-7 20-14 27-6-7-6-3-10 0l0 0z m-183 23c-7-20-23-40-40-53 0 0-3 0-3-3-4-4-10-7-14 0 0 3 0 10 4 13 3 3 3 10 3 13 0 27-3 54-3 80 0 7 6 14 13 14 0 0 3 0 3 0 4-4 4-4 4-7 0-10 0-17 0-27 0-6 3-10 10-6 13 6 10 6 6 20-3 6-3 16-3 23 0 3 3 7 3 10 14-7 14-17 17-27 3-10 3-10 13-6 4 0 4 3 7 3 3 0 10 3 10 0 3-7 0-10-3-17-4 0-4-3-7-3-3 0-7-3-7-7 0 0 0-3 0-3 7-17 17-30 27-47 3 14-3 34 17 44 0-4 0-7 0-10 0-7 0-17 0-24 0-6 3-13 3-20 0-3 0-3 0-6 0-7 0-10-3-14-7-3-14 0-17 4-10 13-17 23-27 36-6 10-10 14-13 20l0 0z m-30-23c0 0 0 0 0 0 10 10 17 20 23 30 0 3 0 7 0 10-3 0-3 0-6-3-4-4-10-7-14-10-3 0-3-4-3-7-3-7 0-13 0-20l0 0z" horiz-adv-x="1000" />

<glyph glyph-name="magasins" unicode="&#xe813;" d="M933 373h-63l-323 320c3 7 6 14 6 24 0 26-23 50-53 50-27 0-50-24-50-50 0-7 3-17 7-24l-324-320h-66c-37 0-67-30-67-66v-307c0-37 30-67 67-67h866c37 0 67 30 67 67v307c0 36-30 66-67 66z m-433 360c10 0 17-10 17-20 0-10-10-16-20-16-10 0-17 6-17 16 3 14 10 20 20 20 0 0 0 0 0 0l0 0z m-23-63c13-7 30-7 46 0l300-297h-646l300 297z m490-670c0-20-17-37-37-37h-863c-17 4-34 20-34 37 0 0 0 0 0 0v307c0 20 17 36 37 36 0 0 0 0 0 0h863c20 0 37-16 37-36v-307z m-754 273c-43 0-76-33-76-76v-87c0-43 33-77 76-77 44 0 77 34 77 77v87c0 43-33 76-77 76z m47-160c0-23-20-43-47-43-23 0-43 20-43 43v87c0 23 20 43 47 43 23 0 43-20 43-43v-87z m143 160h-60c-10 0-16-6-16-16v-204c0-10 6-16 16-16 10 0 17 6 17 16v70h43c44 0 77 34 77 77 0 40-33 73-77 73l0 0z m0-120h-43v87h43c24 0 44-20 44-43 3-24-17-44-44-44l0 0 0 0z m234 87c10 0 16 7 16 17s-6 16-16 16h-104c-10 0-16-6-16-16v-204c0-10 6-16 16-16l0 0h104c10 0 16 6 16 16 0 10-6 17-16 17 0 0 0 0 0 0h-87v70h53c10 0 17 7 17 17s-7 16-17 16h-53v70l87-3 0 0z m190 33c-10 0-17-6-17-16v-147l-90 153c-3 7-10 10-17 7-6-3-13-7-13-17v-203c0-10 7-17 17-17 10 0 16 7 16 17v147l90-154c4-6 10-10 17-6 7 3 13 6 13 16v204c0 10-6 16-16 16 0 0 0 0 0 0l0 0z" horiz-adv-x="1000" />

<glyph glyph-name="actus" unicode="&#xe814;" d="M800 813c13 0 23-13 23-23v-227h150c14 0 24-13 24-23v-537c0-63-50-113-114-113h-770c-63 0-113 50-113 113v784c0 13 10 23 23 23l777 3 0 0z m-27-50h-723v-763c0-33 27-63 60-63 0 0 0 0 0 0h683c-13 16-20 40-23 63l3 763 0 0z m-100-76c14 0 24-14 24-24v-176c0-14-10-24-24-24h-250c-13 0-23 10-23 24v176c0 14 10 24 23 24l250 0 0 0z m-373-24c13 0 23-10 23-23 0-13-10-23-23-23h-150c-13 0-23 10-23 23 0 13 10 23 23 23h150z m350-26h-200v-124h200v124z m-350-100c13 0 23-10 23-24s-10-26-23-26h-150c-13 0-23 10-23 23s10 23 23 23h150z m650-24h-123v-513c0-33 26-63 63-63s63 26 63 63v513l-3 0z m-277-126c14 0 24-10 24-24s-10-23-24-23h-523c-13 0-23 10-23 23s10 24 23 24h523l0 0z m0-137c14 0 24-10 24-23 0-14-10-24-24-24h-523c-13 0-23 10-23 24 0 13 10 23 23 23h523l0 0z m0-137c14 0 24-10 24-23 0-13-10-23-24-23h-523c-13 0-23 10-23 23 0 13 10 23 23 23h523l0 0z" horiz-adv-x="1000" />

<glyph glyph-name="recettes" unicode="&#xe815;" d="M997 297c-4 6-7 10-14 10h-210c-3 23-13 46-26 66l213 257c7 7 7 17 0 23-7 7-17 4-23-3 0 0 0 0 0 0l-214-253c-16 13-40 23-63 30l147 363c3 10 0 17-10 20-7 3-17 0-20-10 0 0 0 0 0 0l-150-373c-34-4-60-17-84-40-53 100-176 136-276 83-64-33-104-97-110-167h-140c-7 0-14-3-14-10-3-3-3-10 0-13l284-370c10-13 23-20 40-20h346c17 0 30 7 40 20l284 370c3 3 3 10 0 17z m-270 50c6-14 13-27 16-44h-36c0 4-4 7-4 14l24 30z m-90 46l0 0c23 0 46-6 66-23l-23-27c-13 10-27 14-40 14-30 0-60-24-67-54h-40c10 54 54 90 104 90l0 0z m23-76l-10-14h-40c7 14 17 20 33 20 4 0 10 0 17-6l0 0z m-297 146c70 0 130-40 160-103-10-17-16-37-20-53h-3c-7 76-77 130-150 120-63-7-113-57-120-120h-40c7 86 80 156 173 156l0 0z m0-106c-30 0-60-24-66-54h-40c6 57 60 97 120 90 46-6 83-43 90-90h-37c-10 34-37 54-67 54l0 0z m30-50h-63c10 16 30 23 47 16 6-6 13-10 16-16l0 0z m294-380c-4-4-10-7-14-7h-346c-7 0-10 3-14 7l-263 346h900l-263-346z m-220 660c0-20 6-40 20-54 10-10 13-20 13-33 0-10 7-17 17-17 10 0 16 7 16 17 0 0 0 0 0 0 0 20-6 40-20 53-16 20-16 47 0 67 27 30 27 77 0 107-10 10-13 20-13 33 0 10-7 17-17 17-10 0-16-7-16-17 0-20 6-40 20-53 16-20 16-50 0-67-14-17-20-33-20-53l0 0z m86-17c4 0 10 3 14 7 36 43 46 103 23 156-3 7-13 14-20 10 0 0 0 0 0 0-7-3-13-13-7-20 17-40 10-90-20-123-3-3-3-7-3-10-3-13 3-20 13-20l0 0z m-130-53c4 0 4 0 7 0 7 3 13 13 7 20-17 40-10 90 20 123 0 0 0 0 0 0 3 7 3 13 0 17-4 6-14 10-24 3 4 7 0 3 0 3-36-43-43-103-23-156 0-7 7-10 13-10l0 0z" horiz-adv-x="1000" />

<glyph glyph-name="produits" unicode="&#xe816;" d="M983 27h-173c33 53 50 113 50 176 0 117-57 217-140 257 17 43 50 77 93 93 10 4 14 14 10 20 0 4-6 10-10 10-30 14-63 14-96 7 10 27 26 50 50 70 6 7 10 17 3 23 0 0-3 4-7 4-23 10-50 10-73-4-3 0-7-3-7-3-6 30-16 60-33 87l0 0 0 0 0 0 0 0 0 0 0 0 0 0 0 0 0 0 0 0 0 0 0 0 0 0 0 0 0 0 0 0 0 0h0 0 0 0 0 0 0l0 0 0 0 0 0 0 0 0 0 0 0 0 0 0 0 0 0 0 0 0 0 0 0 0 0 0 0 0 0 0 0 0 0c-17-27-27-57-33-87 0 0 0 0-4 0-23 13-53 17-80 3-30 0-33-10-30-16 0-4 4-7 7-7 20-20 37-43 50-70-33 7-67 3-97-7-10-3-13-13-10-20 4-3 7-10 10-10 44-16 77-50 94-93-24-10-40-23-57-40-33-37-60-80-73-127-4 0-7 4-10 4-24 6-50 10-74 3-6 0-13 0-16-3 3 30 20 60 43 80 7 6 7 16 3 23-6 7-16 7-23 3 0 0 0 0 0 0-10-6-17-16-27-26-10 36-43 63-80 63-6 0-16 0-23-3-7 0-10-7-10-10-13-44 10-90 53-104 7-3 17-3 24-3 3 0 6 0 10 0-4-7-4-17-4-23-6 0-13 0-20 3-23 3-50 3-73-3-57-24-87-77-80-150 7-47 30-90 63-124h-166c-10 0-17-6-17-16 0-10 7-17 17-17h130l30-40c13-17 33-27 53-27h537c20 0 40 10 53 27l30 43h130c10 0 17 7 17 17 3 10-4 17-14 17z m-686 330c-4 0-4 0-7 0-27 0-50 23-50 50 0 3 0 3 0 6 3 0 3 0 7 0 26 0 50-23 50-50 0-3 0-6 0-6z m520-244l-17 20 27 27c-4-17-7-30-10-47l0 0z m-110-26l-47 46 47 47 46-47-46-46z m13-60h-27l14 13 13-13z m-150 60l-47 46 47 47 47-47-47-46z m13-60h-26l13 13 13-13z m57 360l47-47-47-47-47 47 47 47z m-13 60c3 0 6 0 13 0 3 0 7 0 13 0l-13-14-13 14z m80-224l-47 47 47 47 46-47-46-47z m70 27l46-47-46-46-47 46 47 47z m-94-47l-46-46-47 46 47 47 46-47z m-66 67l-47-47-47 47 47 47 47-47z m-70-67l-47-46 0 0c3 26 0 53-13 76l13 14 47-44z m-47-93l47-47-37-36h-7c-13 16-23 33-30 50 4 3 4 6 7 10l20 23z m140 0l47-47-37-36h-20l-37 36 47 47z m137 0l26-27c-10-20-20-36-33-53h-3l-37 37 47 43z m50 133l-27 27 17 17c3-14 6-27 10-44l0 0z m-24 80l-26-26-47 46 40 40c13-20 27-40 33-60l0 0z m-56 80l-40-40-47 47 27 27c23-7 43-17 60-34l0 0z m16 157c-33-20-56-53-70-90-16 7-33 7-53 10 10 23 27 47 47 60 23 17 50 23 76 20l0 0z m-56 97c6 3 13 3 20 6-20-26-37-56-47-86-3-4-7-4-10-7-3-3-7-3-10-7 0 7-3 14-7 20 10 27 27 54 54 74z m-67 66c10-23 13-46 17-70-7-10-14-20-17-30-7 10-10 20-20 30 3 27 10 50 20 70l0 0z m-90-63c7 0 17-3 23-7 27-13 47-53 57-106-10 10-20 20-33 26-10 34-27 64-47 87l0 0z m-37-100c40 3 80-17 107-50-7-10-10-23-13-33-7 0-17-4-24-7-13 37-36 70-70 90l0 0z m77-123l27-27-47-47-40 40c17 17 37 27 60 34l0 0z m-83-57l40-40-47-47-27 27c7 23 20 43 34 60l0 0z m-47-90l17-17-7-6c-3 3-7 10-13 13 0 0 3 3 3 10z m-307-137c-6 74 27 104 57 114 20 6 40 6 57 3 26-3 53-3 80 0 20 3 40 3 56-3 30-10 67-40 57-114-10-53-37-96-80-126h-143c-44 30-74 73-84 126l0 0z m314-126h-30c6 6 13 13 16 20 4-7 7-14 14-20l0 0z m330-57c-7-10-17-13-30-13h-534c-10 0-23 6-30 13l-16 23h626l-16-23z m-404 223c4-6 14-10 20-6 0 0 0 0 0 0 7 3 10 13 7 23-7 10-17 20-27 23l-3-6 3 6-3-16 0 3-7-20c7 0 10-3 10-7l0 0z m-26-130c3 0 6 0 10 4 23 20 43 46 50 76 3 10-4 17-10 20-10 4-17-3-20-10 0 0 0 0 0 0-7-23-20-46-40-60-7-6-7-16-4-23 4-3 10-7 14-7z" horiz-adv-x="1000" />

<glyph glyph-name="histoire" unicode="&#xe817;" d="M766 850h-528c-27 0-51-23-51-50v-933c0-10 7-17 17-17 0 0 0 0 0 0h70c10 0 17 7 17 17 0 0 0 0 0 0v123h425v-123c0-10 6-17 16-17 0 0 0 0 0 0h71c10 0 16 7 16 17 0 0 0 0 0 0v933c-3 27-26 50-53 50z m-508-970h-37v110c6-3 13-3 20-3h20l-3-107 0 0z m525 0h-37v107h20c7 0 13 0 20 3l-3-110 0 0z m0 157c0-10-10-20-20-16h-525c-11 0-21 6-21 16v763c4 10 10 17 21 17h528c10 0 20-7 20-17v-763l-3 0z m-405 589h247c27 0 51 23 51 50 0 27-24 50-51 50h-247c-27 0-50-23-50-50 0-27 23-50 50-50 0 0 0 0 0 0z m0 70h247c11 0 17-6 17-17 0-10-6-16-17-16h-247c-10 0-17 6-17 16 0 11 7 17 17 17z m17-107c-10 0-17-7-17-17 0-10 7-16 17-16h210c10 0 17 6 17 16 0 10-7 17-17 17h-210z m-104-134h388c10 0 17 7 17 17 0 10-7 17-17 17l0 0h-388c-10 0-17-7-17-14-3-13 4-20 17-20-3 0 0 0 0 0l0 0z m0-70h248c10 0 16 7 16 17 0 10-6 17-16 17 0 0 0 0 0 0h-248c-10 0-17-7-17-14 0-13 7-20 17-20-3 0 0 0 0 0l0 0z m421 34h-36c-10 0-17-7-17-17 0-10 7-17 17-17 0 0 0 0 0 0h36c10 0 17 7 17 17 0 7-7 17-17 17l0 0z m-421-104h388c10 0 17 7 17 17 0 10-7 16-17 16l0 0h-388c-10 0-17-6-17-13-3-10 4-20 17-20-3 0 0 0 0 0l0 0z m0-70h248c10 0 16 6 16 16 0 10-6 17-16 17 0 0 0 0 0 0h-248c-10 0-17-7-17-13 0-10 7-17 17-20-3 0 0 0 0 0l0 0z m421 33h-36c-10 0-17-7-17-17 0-10 7-16 17-16 0 0 0 0 0 0h36c10 0 17 6 17 16 0 10-7 17-17 17 0 0 0 0 0 0z m-421-100h388c10 0 17 6 17 17 0 10-7 16-17 16l0 0h-388c-10 0-17-6-17-13-3-14 4-20 17-20-3 0 0 0 0 0l0 0z m248-37h-248c-10 0-17-7-17-17 0-10 7-16 17-16h248c10 0 16 6 16 16-3 10-10 17-16 17 0 0 0 0 0 0l0 0z m173 0h-36c-10 0-17-7-17-17 0-10 7-16 17-16h36c10 0 17 6 17 16 0 10-7 17-17 17l0 0 0 0z" horiz-adv-x="1003" />

<glyph glyph-name="tang-gourmet-mobile" unicode="&#xe818;" d="M323 513c0 24 4 47 20 74 14 30 40 53 64 66 10 4 20 10 30 10h3c0-3 0-3-3-3s-4-3-10-3c-30-20-47-47-54-84 0-30 0-46 0-73 0-43 24-77 57-100 40-23 87-20 120 10 23 23 43 57 43 90 4 33-3 73-20 100-10 20-23 33-43 47-3 0-3 3-10 3v7h3c4 0 4 0 10 0 37-14 67-40 87-74 30-46 30-110-3-160-30-46-84-76-134-73-46 0-90 20-120 57-26 33-40 66-40 106z m147 197c0 3 3 3 3 10 4 3 10 10 14 13 0 0 3 4 10 4 3 0 3 0 3-4s0-3 0-10l0-3c-10-3-20-13-30-30-3-10-3-20 0-30 0-3 3-10 3-10 10-13 20-30 30-43 10-10 14-24 14-40 0-20 0-40 0-54 0-23-10-43-30-56-4-4-4-4-10-10-4-4-14-4-20 0v3l3 3c3 4 13 10 20 10 10 10 20 20 20 34v3c-3-3-10-10-13-13-4-4-10-10-14-10s-6 6-6 6c-4 0-4 4-4 10l0 0c4 0 4 4 10 4 4 3 14 10 20 13 0 7 7 17 7 20v7c-3 13-10 23-20 40-3 20-13 30-20 40-3 3-3 13-10 23 0 3 0 10 0 20 0 20 0 43 0 63 0 0 0 0 0 4 3 20 20 40 33 46 4 0 4 4 10 4s10-4 10-4l0 0c0 0 0-3-3-3-3-3-10-10-13-13-10-10-20-20-20-34 0-10 0-13 3-13l0 0z m33-137l0 0c0 4 0 4 0 10 0 4 0 4-3 10-3 10-13 24-20 34-3 3-3 10-10 10l-3 6 0 0v-3c0-3 0-10 3-10 10-13 13-23 23-40 0-7 7-7 7-7 0-10 3-10 3-10z m-386-420c0-10 0-10 10-13 13-10 30-20 43-30 3-3 3-10 3-13 0-4-3-10-10-14-3 0-10 4-10 4-10 10-20 20-30 30h0c0-10 0-24 0-34 0-3 0-13-10-13-3 0-10 0-13 10 0 0 0 0 0 3 0 10-3 24-3 34-10-4-14-24-34-20-3 0-10 3-13 10 20 10 33 23 43 43-3 0-10 0-10 0-3 0-10 0-13 3 0 0 0 0 0 4 0 10-3 20-10 30-10-4-13-10-13-20 0-24 0-54-4-77 0-3-3-10-10-10 0 0 0 0-3 0s-10 3-10 10c0 0 0 0 0 3 0 24 0 54 0 77 0 13 0 30 0 43-13 4-13 10-3 24 0 3 3 3 3 10s3 13 13 10l0 0c4 0 4 0 10 0 4 0 10 3 14 10 13 3 20 3 20-10 3 0 10 0 10 3 3 0 10 0 13 3 0 4-3 10-3 14 0 3 0 3 0 10 3 3 3 3 10 3 10 0 20-10 20-23 10 0 13 0 23 0 3 0 10-4 10-10l0 0c0-4-3-10-3-10l0 0c-4 0-14 0-20 0v3h20c10 0 16-10 10-30-10-43-27-57-50-67l0 0z m-34 84c-20 3-23 0-23-14 10-3 13 4 23 14z m47-20c-3-4-3-4-10-10 3 0 3-4 10-4 3 0 3 4 10 4l-10 10z m-33-14c-4 0-4 4 0 0-10 0-14-3-20-10 0 0 0 0 0-3 13 3 16 7 20 13z m-57-10c13 10 0 14 0 24v-24z m870-76c3-4 10-4 13-10 4-4 10-10 10-20 0-4 0-10-3-14-3 0-10 0-13 4-4 3-10 10-10 13-4 3-4 3-10 10-4-10-10-23-14-33-3-10-10-14-13-14-3 4-13 10-13 14 0 3-4 13-4 20 0 20 0 40 0 56 0 10-3 20-10 24-3-4-3-10-10-14-3-10-13-13-20-10-10 4-13 10-13 20s3 10 13 10c4 0 10 0 10 4 20 30 40 53 57 83 0 3 3 10 3 10 0 3 4 10 10 10l0 0c10 0 14-3 14-13l0 0c-4-30 13-40 30-54 13-13 33-23 46-33 4-3 4-3 10-10-3 0-10-3-13-3-23 10-43 20-57 40-3 10-13 13-20 20 0 0-3 3-10 0-3-4-3-4-10-10l4-4c3 0 3 0 10 0 3-3 10-3 10-10s-4-3-10-10c-4 0-10-3-14-10 4 0 14 4 20 4s14 0 14-10v-4c0-13-4-30-4-40s-13-16-16-13l0 0c-4 0-4 0-10 0 3-3 10-3 13-3l0 0c3 3 10 13 13 20 4 3 4 10 10 10s10-4 10-4c0-3 0-13-3-20 0 4-10-3-20-6z m-37 0l0 0-6-24c0 0 0 0 3 0 3 4 3 10 10 14-3 3-3 3-7 10l0 0z m-6 56c6-3 6-3 0 0 13 0 20 0 20 14-7-10-10-10-20-14l0 0z m10-30c3 4 3 4 3 10l-3 4c-4 0-4-4-4-4l4-10z m-247-23c-3-3-10-10-13-20-10-10-20-20-30-30-10-3-20-3-30 0l-4 3c0 4 4 4 4 4 13 3 23 20 33 33-10-3-20-10-30-10-10-3-13-3-23-3-4 0-10 3-10 10s3 10 3 10c3 0 10 3 13 3 14 3 30 3 44 10 3 0 10 3 10 13v4c-4-4-14-10-20 0-4 3-4 10-4 13l4 3c3 4 13 4 20 10 0 0 0 4 3 10-3 0-13 0-20 0-3 0-3 4-10 4 0 3 0 10 3 10 10 3 20 10 34 13 0 0 3 0 3 3v4c-10-4-20-4-23-10-10-4-20-4-24 3l0 0c-3 3-3 10-3 13 3 4 10 10 13 10 0 0 0 4-3 10-3 14 0 24 13 20 10 0 14-10 14-13 0-3 0-10 3-13 0-4 0-4 3-4 4 0 10 0 10 4 4 3 4 13 10 20 4 3 4 10 10 13 10 3 14 3 20-10 0-3 4-10 10-13 4-4 10-10 10-20 0-4-10-10-13-10l0 0c-10 0-13 0-23 0 0 0-4 0-4-4 10-3 20 0 20-13 0-13-10-13-20-20 4 0 4 0 10 0 4 0 4-3 10-3 0-4-3-10-3-10-3-4-10-4-13-4 0-3 0-13-4-20 4 0 10 0 14 4 13 3 33 3 53 0 10 0 13-10 13-14l0 0c0-3-3-10-13-10l0 0c-10 0-20 0-23 0-4 0-14 0-20 0v-3c3 0 3-3 10-3 10-10 20-20 30-30 3-4 3-14 0-20l-4-4c-10-3-20 0-30 10-3 14-10 30-20 40-6-3-6 4-13 7l0 0z m-263 33c-10-30-34-56-57-76 0 0-3 0-3-4-4-3-14-10-20 0 0 4 0 14 3 20 3 4 3 14 3 20 0 40-3 77-3 117 0 10 10 20 20 20h3c4-3 4-3 4-10 0-13 0-23 0-40 0-10 3-13 13-10 20 10 13 10 10 30-3 10-3 23-3 33 0 4 3 10 3 14 20-10 20-24 23-40 4-14 4-14 20-10 4 0 4 3 10 3s14 3 14 0c3-10 0-13-4-23-3 0-3-4-10-4-3 0-10-3-10-10v-3c10-23 24-43 40-67 4 20-3 47 24 64 0-4 0-10 0-14 0-10 0-23 0-33 0-10 3-20 3-30 0-3 0-3 0-10 0-10 0-13-3-20-10-3-20 0-24 3-13 20-23 34-40 54-6 13-10 16-16 26l0 0z m-44-33l0 0c14 13 24 30 34 43 0 4 0 10 0 14-4 0-4 0-10-4-4-3-14-10-20-13-4 0-4-3-4-10-3-10 0-20 0-30l0 0z" horiz-adv-x="1000" />

<glyph glyph-name="evenements" unicode="&#xe819;" d="M900 670h-103c-14 0-24-10-24-23 0-14 10-24 24-24h103c13 0 23-10 23-23 0 0 0 0 0 0v-140h-780v140c0 13 10 23 24 23 0 0 0 0 0 0h120c13 0 23 10 23 24 0 13-10 23-23 23h-120c-37 0-67-30-67-67v-620c0-36 30-66 67-66h733c37 0 67 30 67 66v617c0 37-30 70-67 70z m20-687c0-13-10-23-23-23h-730c-14 0-24 10-24 23v430h777l0-430 0 0z m-480 640h180c13 0 23 10 23 24 0 13-10 23-23 23h-180c-13 0-23-10-23-23 0-14 10-24 23-24z m-80-123c27 0 47 20 47 47 0 16-10 33-24 40v173c0 13-10 23-23 23s-23-10-23-23v-173c-24-10-34-40-20-64 10-13 23-23 43-23z m347 0c26 0 46 20 46 47 0 16-10 33-23 40v173c0 13-10 23-23 23-14 0-24-10-24-23 0 0 0 0 0-3v-174c-23-13-30-40-20-63 10-10 27-20 44-20l0 0z" horiz-adv-x="1000" />

<glyph glyph-name="info" unicode="&#xe81a;" d="M500 783c240 0 433-193 433-433 0-240-193-433-433-433-240 0-433 193-433 433 0 240 193 433 433 433z m0-803c203 0 370 167 370 370s-167 370-370 370c-203 0-370-167-370-370 0-203 167-370 370-370 0 0 0 0 0 0z m-37 480h77v-353h-77l0 353 0 0z m0 133h77v-86h-77l0 86 0 0z" horiz-adv-x="1000" />

<glyph glyph-name="horaires" unicode="&#xe832;" d="M483 780c-250 0-450-200-450-447 0-250 200-450 450-450 247 0 450 200 450 450-3 247-203 447-450 447l0 0z m0-60c214 0 387-173 387-387 0-213-173-386-387-386-216 0-390 173-390 386 0 214 174 387 390 387-3 0-3 0 0 0l0 0z m0-93c-16 0-30-14-30-30 0 0 0 0 0 0v-264c0-6 4-16 10-23l164-163c13-14 33-14 43 0 13 13 13 33 0 43l0 0-157 153v254c0 16-13 30-30 30 0 0 0 0 0 0l0 0z" horiz-adv-x="1000" />

<glyph glyph-name="telephone" unicode="&#xe833;" d="M493 227c24-27 54-44 87-47 40-3 77 17 97 47 10 13 26 26 43 33 23 7 50 3 70-10 50-37 100-77 150-113 20-20 30-50 20-77-7-23-20-40-37-57-66-80-170-123-276-113-94 17-184 80-284 180l-113 113c-100 100-163 190-180 284-13 103 30 206 110 276 17 17 37 30 57 37 26 7 56 0 76-20 40-50 77-100 114-150 13-20 16-47 10-70-7-17-20-33-34-43-30-24-50-60-46-97 6-33 23-63 46-87m-26-36c-34 30-57 70-60 116-4 54 20 107 63 137 7 7 13 13 20 23 3 10 0 24-7 30l-110 140c-6 14-20 17-30 10-13-3-26-13-36-26-87-87-114-157-100-234s70-160 166-256l120-120c97-97 180-154 257-167 77-13 150 13 233 100 10 10 20 23 27 37 3 10 0 23-10 30l-140 106c-10 7-20 10-30 7-10-3-17-10-23-20-34-43-84-67-137-63-43 6-87 26-117 60" horiz-adv-x="1000" />

<glyph glyph-name="address" unicode="&#xe834;" d="M500 600c-103 3-190-77-193-180-4-103 76-190 180-193 103-4 190 76 193 180 0 3 0 3 0 6 3 100-80 184-180 187z m0-330c-80-3-143 60-147 137-3 80 60 143 137 146 77 4 143-56 147-136 0-4 0-4 0-7 0-73-60-140-137-140z m0 507c-3 0-7 0-13 0-177-10-320-147-334-327-3-33 0-70 4-103 0 0 0-4 3-14 7-23 13-46 23-70 64-143 164-270 284-370 20-16 46-16 63 0 123 100 220 227 283 370 10 24 17 47 24 70 0 4 3 7 3 10 3 24 7 47 7 70 3 200-150 360-347 364z m300-420c0 0 0-4-3-10-4-24-14-44-20-64-60-136-154-260-274-353 0 0-3 0-3 0 0 0-3 0-3 0-117 93-210 217-274 353-10 20-16 40-20 64-3 3-3 6-3 10 0 0 0 0 0 0-7 30-7 60-3 90 10 166 156 296 323 283 163-10 290-150 283-317 0-16 0-36-3-56l0 0z" horiz-adv-x="1000" />

<glyph glyph-name="epicerie" unicode="&#xe838;" d="M917 677c-7 3-14 0-17-7l-57-127c-30 180-203 304-383 274-140-24-250-134-273-277l-64 130c0 7-10 10-16 7-7-4-10-10-7-17 0 0 0 0 0 0l80-170 43-597v-6l0-10c0-7 7-14 14-14h546c7 0 14 4 14 14l43 610 80 170c7 6 3 16-3 20 0 0 0 0 0 0z m-667-757l-40 537 283-277-243-260z m260 243l247-273h-500l253 273z m0 34l-283 276h570l-287-276z m87 303h-184c4 27 27 120 164 120 13-40 16-77 20-120l0 0z m26 0c0 30-13 173-80 267 130-74 164-230 170-267h-90z m-53 147c-153 0-180-117-183-147h-97c3 37 37 203 250 220 13-20 23-47 30-73z m250-147h-77c-6 30-36 207-183 287 143-17 253-140 260-287z m-333 293c16-13 30-26 40-43-224-27-260-213-264-250h-56c6 153 126 280 280 293z m290-883l-244 270 284 277-40-547z" horiz-adv-x="1000" />

<glyph glyph-name="surgeles" unicode="&#xe839;" d="M930 140l-103 60 80 20c13 3 23 17 20 33-4 14-17 24-34 20 0 0 0 0 0 0l-130-33-196 110 196 113 130-33c14-3 30 3 34 20 0 0 0 0 0 0 3 13-4 30-20 33 0 0 0 0 0 0l-80 20 103 60c13 7 20 24 10 37s-23 20-37 10c0 0 0 0-3 0l-100-63 20 80c3 13-3 30-20 33-13 3-30-3-33-20l-34-130-196-113v223l100 97c10 10 10 26-4 36-10 10-26 10-36 0l-57-56v120c0 13-13 26-27 26-13 0-26-13-26-26v-120l-57 56c-10 10-27 10-37 0-10-10-10-26 0-36l0 0 97-97v-223l-197 113-33 130c-3 13-20 23-33 17-17-4-24-17-20-34l20-80-104 64c-13 6-30 3-36-10-7-10-4-27 6-37 0 0 0 0 4 0l103-60-80-20c-13-3-23-20-17-33 4-10 14-20 27-20 3 0 3 0 7 0l130 33 196-113-196-110-130 33c-14 3-30-3-34-17-3-13 4-30 17-33 0 0 0 0 0 0l80-20-103-60c-14-7-17-23-7-37 7-10 23-16 33-10l104 60-20-80c-4-13 3-30 20-33 0 0 0 0 0 0 3 0 3 0 6 0 14 0 24 7 27 20l33 130 197 113v-223l-97-97c-10-10-10-26 0-36 10-10 27-10 37 0l57 56v-120c0-13 13-26 26-26 14 0 27 13 27 26v120l57-56c10-10 26-10 36 0 10 10 10 26 0 36l-96 97v223l196-113 34-130c3-10 13-20 26-20 4 0 4 0 7 0 13 3 23 20 20 33l-20 80 103-60c4-3 10-3 14-3 13 0 26 13 26 27 0 10-3 20-13 23z" horiz-adv-x="1000" />

<glyph glyph-name="boissons" unicode="&#xe83a;" d="M553 693h-106c-10 0-20 10-20 20v94c0 10 10 20 20 20h106c10 0 20-10 20-20 0 0 0 0 0 0v-94c0-13-10-20-20-20 0 0 0 0 0 0z m-86 40h66v54h-66l0-54 0 0z m180-856h-290c-10 0-20 10-20 20 0 0 0 0 0 0v526c0 10 3 47 60 90 13 10 33 24 36 30 0 0 0 4 0 4v166c0 10 10 20 20 20h97c10 0 20-10 20-20 0 0 0 0 0 0v-166c0 0 0-4 0-4 7-6 23-16 37-30 60-43 60-86 60-90v-523c-4-13-10-23-20-23l0 0z m-274 40h250v506c0 0 0 27-43 57-47 37-53 40-50 60 0 0 0 3 0 3v150h-57v-150c0 0 0-3 0-3 4-20-6-27-53-60-43-30-43-57-43-57l-4-506 0 0z" horiz-adv-x="1000" />

<glyph glyph-name="divers" unicode="&#xe83b;" d="M303 157l0 0z m30-67l0 0 0 0 0 0z m294 307v-160l0 0v-304c0-16 6-30 16-40l0 0 0 0 0 0 0 0c10-10 27-16 40-16 34 0 57 26 57 56v217l0 0v247c70 10 127 70 127 140 0 3 0 6 0 10l-14 203 0 0c0 20-10 40-26 53l0 0c-14 14-34 24-54 24-3 0-10-4-10-4-3-3-3-6-3-10v-250h-27v247c0 10-6 17-16 17h-67c-3 0-10-4-10-4-3-3-3-6-3-10v-250h-24v247c0 10-6 17-16 17h0c-44 0-77-34-80-77l-14-203v0c0-4 0-7 0-10-3-70 54-134 124-140z m-94 146l14 207c0 20 13 37 33 43v-246c0-4 3-10 3-10 4-4 7-4 10-4h57c3 0 10 4 10 4 7 0 7 3 7 6v250h33v-250c0-3 3-10 3-10 4-3 7-3 10-3h57c3 0 10 3 10 3 3 4 3 7 3 10v247c7-3 14-7 17-10 10-10 13-20 17-33l0 0 13-204c0-3 0-3 0-6 0-30-10-57-33-77-20-20-47-33-77-33-3 0-10-4-10-4-3-3-3-6-3-10v-480c0-6-4-13-7-16-3-4-10-7-17-7-6 0-13 3-16 7l0 0c-4 3-7 10-7 16v304l0 0v176c0 4-3 10-3 10-4 4-7 4-10 4-30 0-57 10-77 33-20 20-33 50-33 77-4 3-4 6-4 6z m-400-296l0 0z m27-70c17-17 40-27 63-27h14c16 0 33-7 43-17l0 0c13-13 20-26 20-43l0 0 3-160 0 0c0-33 27-57 60-57 14 0 30 7 40 17l0 0c10 10 17 27 17 40l0 297 0 250v0 323l0 3 0 0 0 0 0 0 0 0 0 0 0 0 0 0 0 0 0 0 0 0 0 0 0 0 0 0 0 0-3 0h0 0l-17 14 0 0 0 0 0 0 0 0 0 0 0 0c-80-57-143-127-183-210-47-87-74-204-84-360 0-4 0-4 0-7 0-23 7-47 27-63l0 0z m3 70l0 0c10 153 37 263 80 346 34 67 84 127 140 174v-290 0l0-247 0-297c0-6-3-13-6-16-4-4-10-7-17-7-13 0-27 10-27 23l0 0 0 157c0 27-10 50-30 67-16 16-43 26-66 26h-14c-16 0-30 7-40 17-10 10-16 27-16 43-4 0-4 0-4 4l0 0z" horiz-adv-x="1000" />

<glyph glyph-name="retour" unicode="&#xe83c;" d="M263 577h-93l-103-110c-4-4-7-7-10-10 0 0-4-4-4-7l-30-33c10-10 20-20 30-34 4-6 10-10 14-13h0l66-77c10-10 20-23 30-33l0 0 4-3h96l-116 126-27 30 27-30c220 0 440 0 660-3 30 0 56-13 76-30 20-17 30-40 30-67v-6c-3-20-13-44-26-57-17-17-40-27-64-30h-356v-67h370c40 7 76 24 103 54 27 26 43 60 47 100v6c0 44-20 84-50 114-34 33-80 50-127 53h-3c-220 0-440 0-660 0l116 127" horiz-adv-x="1000" />

<glyph glyph-name="fruits" unicode="&#xe83d;" d="M397 243c-14 7-40 24-17 67 7 13 60 87 93 67s-3-100-10-114c-23-43-53-26-66-20z m60 100c-20-13-34-30-47-50-7-13-7-13 3-20 14-6 14-6 20 7 14 20 20 40 24 63l0 0z m90-153c-17 10-24 30-17 50 3 17 27 100 63 93 4 0 7 0 7-3 27-17 23-87 20-107-10-46-40-43-53-40-7 0-14 4-20 7l0 0z m43 107c-13-20-23-40-27-64 0-3 0-10 0-16 4 0 7-4 10-4 14-3 14-3 17 14 3 23 3 46 0 70l0 0z m-313 50l0 0c-7 3-10 10-17 16-10 10-30 37 7 67 16 13 76 53 103 37 3 0 3-4 7-7 23-30-37-93-50-103-10-14-34-20-50-10l0 0z m73 90c-23-7-43-17-60-34-13-10-10-10-3-23 3-3 6-7 6-7 7 0 10 4 14 7 16 17 33 37 43 57l0 0z m-70-397l0 0c-150 87-247 247-257 420-10 107 17 213 70 303 4 7 14 10 24 7 0 0 0 0 0 0l876-510c4-3 7-7 7-10 0-3 0-10-3-13-87-154-244-254-417-267-103-7-210 17-300 70z m-167 693c-46-83-66-176-60-270 10-163 100-313 244-396 83-50 183-74 280-64 156 14 300 100 383 237l-847 493z m217-606l0 0c-123 73-200 200-210 343-7 83 13 170 57 247 6 6 13 10 23 3 0 0 0 0 0 0l707-413c3-4 6-7 6-10 0-4 0-10-3-14-70-123-197-203-340-216-80-4-167 16-240 60z m-133 556c-34-66-50-140-44-213 7-130 80-250 194-317 66-40 146-56 223-50 127 10 240 80 303 187l-676 393z" horiz-adv-x="1000" />

<glyph glyph-name="viandes" unicode="&#xe83e;" d="M927 463l0 0c-10 0-17-6-17-16s7-17 17-17c0 0 0 0 0 0 10 0 16 7 16 17 4 6-6 16-16 16z m0-10l0 0 0 0 0 0z m40 64l0 0-7 13c0 0 0 3-3 3l0 4c0 0 0 3-4 3-20 27-46 47-73 63-10 30-43 97-163 97-30 0-64-3-94-10-30 3-56 7-86 7-14 0-24 0-30 0 0 33-10 93-44 133l-3 3-27-16 0-7c0-3 0-7 0-7 0 0 0 0 0 0 0 0-3-3-3-3-17-20-30-47-33-73l0 0 0 0c0 0 0-4 0-4 0-16-10-33-27-43l-3 0c-20-20-34-43-40-70 0-3 0-3-4-3 4-10 0-14-3-14l-7-3 4-27 6 0c7 0 14 0 20 0 40 4 80 17 117 37 40-63 90-120 147-167-7-6-10-13-10-20-4-13-10-26-10-43l-4-17 17-3c0 0 7 0 20 0 0 0 0 0 0 0 27 0 53 3 80 17 10-7 20-14 33-20 30-20 67-34 104-37l3 0c0 0 3 0 3 0 0 0 4 0 7 0 0 0 3 0 3 0h4c53 0 103 23 140 63l3 7c0 10 3 20 3 30-10 37-20 73-36 107z m-224-144c-10 7-20 14-30 20-3 4-10 7-13 10-20 14-40 27-57 40l-13 7c-63 50-117 110-157 180l-6 17-17-10c-27-20-60-34-93-40 6 20 16 36 30 50 26 13 40 40 40 70 0 3 0 3 0 6 6 20 13 37 26 54 14-30 20-64 20-94 0 0 0-3 0-3l0-20 20 3c14 4 30 4 44 4 23 0 46 0 66-4 7 0 14 0 20-3 77-17 154-43 227-77l3-3c4 0 4-3 7-3l3-4c24-13 44-26 60-46-16-10-30-24-43-37-13-13-23-27-33-43-17-34-27-70-27-107-27 7-53 17-77 33z m-83 14c-13-4-30-7-43-7 0 7 3 13 6 20 0 3 4 7 7 10 10-7 20-17 30-23z m60 280c60 0 93-20 110-40-37 16-73 30-110 40z m157-234c6 14 16 27 26 37 10 10 24 20 34 30 13-30 20-60 20-93 0-7 0-14 0-24-27-30-67-46-107-50 3 37 10 70 27 100z m-767-286c3 0 3 0 7 0 30 0 56 56 70 106 3 17 6 40 6 64 0 33-6 63-23 66h0c-7 4-13 0-23-3-27-13-47-63-57-100-7-23-10-50-10-77 0 0 0-3 0-3 7-40 20-50 30-53z m53 163c0-17-3-33-6-50l-4-10h0c-13-40-26-63-33-70-3 3-3 7-3 13 0 4 0 4 0 7 0 0 0 0 0 3 0 24 3 47 10 67 10 40 26 67 33 77 3-14 3-27 3-37z m690-167c-16 27-50 37-76 24-4-4-10-7-14-10l-50 13c-60 20-130 80-203 183-130 177-283 184-283 184-10 3-24 3-34 0-36-4-70-37-90-67-36-50-60-107-76-167l0-6c-14-44-17-87-17-130 0-20 0-44 3-64 10-56 34-96 67-106l3 0c40-17 84-27 130-27 4 0 7 0 7 0 70 0 137 17 200 47 90 43 167 63 227 63 16 0 30 0 46-7l47-13c0-3 3-7 3-7l0-3 4 0c10-3 20-7 26-7 7-3 17-6 27-3 13 3 20 10 27 20 10 7 16 17 20 30 3 10 6 20 6 30 4 7 4 13 0 23l0 0z m-456-106c-57-24-114-37-174-37-26 0-53 3-76 10 53 40 103 140 126 227 10 40 17 80 17 120 0 23-3 46-7 70-6 23-16 46-30 70 47-10 147-47 234-167 110-150 186-183 216-193l-10-37c-13 3-26 3-43 3-63 0-147-23-240-66l-13 0z m-340 250l0 3c13 57 40 110 70 157 16 26 40 43 66 53 4 0 4 0 7 0 20-7 37-37 43-83 4-20 4-44 4-64 0-36-4-73-14-110-26-96-76-190-120-213-10-7-16-7-23-3-33 10-53 66-53 140 3 36 10 76 20 120z m760-204l0 0c0-3 0-3 0-6 0-4 0-7 0-7-10-7-24-13-37-13-3 3-7 6-7 10 0 3-3 6-3 6l0 10-43 10 10 37 43-10 7 10c3 3 3 7 6 7 14 6 27 3 34-10 3-4 3-7 3-10 0-7-3-14-7-17l-16-17h10z" horiz-adv-x="1000" />
</font>
</defs>
</svg>
